<?xml version="1.0" encoding="UTF-8"?>
<svg xmlns="https://www.w3.org/2000/svg" xmlns:xlink="https://www.w3.org/1999/xlink" width="30px" height="30px" viewBox="0 0 30 30" version="1.1">
<defs>
<filter id="alpha" filterUnits="objectBoundingBox" x="0%" y="0%" width="100%" height="100%">
  <feColorMatrix type="matrix" in="SourceGraphic" values="0 0 0 0 1 0 0 0 0 1 0 0 0 0 1 0 0 0 1 0"/>
</filter>
<mask id="mask0">
  <g filter="url(#alpha)">
<rect x="0" y="0" width="30" height="30" style="fill:rgb(0%,0%,0%);fill-opacity:0.996078;stroke:none;"/>
  </g>
</mask>
<clipPath id="clip1">
  <rect x="0" y="0" width="30" height="30"/>
</clipPath>
<g id="surface5" clip-path="url(#clip1)">
<path style=" stroke:none;fill-rule:evenodd;fill:rgb(86.666667%,86.666667%,86.666667%);fill-opacity:1;" d="M 1.640625 -0.078125 C 10.496094 -0.078125 19.347656 -0.078125 28.203125 -0.078125 C 28.828125 0.441406 29.402344 1.015625 29.921875 1.640625 C 29.921875 10.496094 29.921875 19.347656 29.921875 28.203125 C 29.402344 28.828125 28.828125 29.402344 28.203125 29.921875 C 19.347656 29.921875 10.496094 29.921875 1.640625 29.921875 C 1.015625 29.402344 0.441406 28.828125 -0.078125 28.203125 C -0.078125 19.347656 -0.078125 10.496094 -0.078125 1.640625 C 0.441406 1.015625 1.015625 0.441406 1.640625 -0.078125 Z M 1.640625 -0.078125 "/>
</g>
</defs>
<g id="surface1">
<use xlink:href="#surface5" mask="url(#mask0)"/>
<path style=" stroke:none;fill-rule:evenodd;fill:rgb(99.607843%,99.607843%,99.607843%);fill-opacity:1;" d="M 8.984375 10.390625 C 8.984375 11.171875 8.984375 11.953125 8.984375 12.734375 C 8.410156 12.734375 7.839844 12.734375 7.265625 12.734375 C 7.316406 11.921875 7.261719 11.140625 7.109375 10.390625 C 6.734375 9.839844 6.289062 9.789062 5.78125 10.234375 C 5.675781 13.359375 5.675781 16.484375 5.78125 19.609375 C 6.128906 19.941406 6.519531 19.992188 6.953125 19.765625 C 7.101562 18.890625 7.15625 18.003906 7.109375 17.109375 C 7.734375 17.109375 8.359375 17.109375 8.984375 17.109375 C 9.011719 18.101562 8.984375 19.089844 8.90625 20.078125 C 8.265625 21.683594 7.09375 22.28125 5.390625 21.875 C 4.367188 21.472656 3.820312 20.714844 3.75 19.609375 C 3.644531 16.378906 3.644531 13.152344 3.75 9.921875 C 4.5 7.996094 5.828125 7.449219 7.734375 8.28125 C 8.492188 8.777344 8.90625 9.480469 8.984375 10.390625 Z M 8.984375 10.390625 "/>
<path style=" stroke:none;fill-rule:evenodd;fill:rgb(99.607843%,99.607843%,99.607843%);fill-opacity:1;" d="M 22.734375 7.890625 C 24.441406 7.648438 25.558594 8.328125 26.09375 9.921875 C 26.199219 13.253906 26.199219 16.589844 26.09375 19.921875 C 25.746094 21.335938 24.832031 22.011719 23.359375 21.953125 C 22.058594 21.878906 21.25 21.199219 20.9375 19.921875 C 20.832031 16.535156 20.832031 13.152344 20.9375 9.765625 C 21.257812 8.847656 21.855469 8.222656 22.734375 7.890625 Z M 22.734375 7.890625 "/>
<path style=" stroke:none;fill-rule:evenodd;fill:rgb(97.254902%,97.254902%,97.254902%);fill-opacity:1;" d="M 18.203125 8.203125 C 18.585938 8.050781 19.003906 8 19.453125 8.046875 C 19.503906 12.65625 19.453125 17.242188 19.296875 21.796875 C 19.296875 17.265625 19.296875 12.734375 19.296875 8.203125 C 18.933594 8.203125 18.566406 8.203125 18.203125 8.203125 Z M 18.203125 8.203125 "/>
<path style=" stroke:none;fill-rule:evenodd;fill:rgb(99.607843%,99.607843%,99.607843%);fill-opacity:1;" d="M 18.203125 8.203125 C 18.566406 8.203125 18.933594 8.203125 19.296875 8.203125 C 19.296875 12.734375 19.296875 17.265625 19.296875 21.796875 C 18.671875 21.796875 18.046875 21.796875 17.421875 21.796875 C 17.421875 18.203125 17.421875 14.609375 17.421875 11.015625 C 16.953125 11.015625 16.484375 11.015625 16.015625 11.015625 C 15.988281 10.597656 16.015625 10.179688 16.09375 9.765625 C 17 9.511719 17.703125 8.992188 18.203125 8.203125 Z M 18.203125 8.203125 "/>
<path style=" stroke:none;fill-rule:evenodd;fill:rgb(86.666667%,86.666667%,86.666667%);fill-opacity:1;" d="M 23.203125 9.921875 C 23.550781 9.871094 23.835938 9.976562 24.0625 10.234375 C 24.167969 13.410156 24.167969 16.589844 24.0625 19.765625 C 23.648438 20.007812 23.285156 19.957031 22.96875 19.609375 C 22.863281 16.484375 22.863281 13.359375 22.96875 10.234375 C 23.082031 10.148438 23.160156 10.046875 23.203125 9.921875 Z M 23.203125 9.921875 "/>
<path style=" stroke:none;fill-rule:evenodd;fill:rgb(99.607843%,99.607843%,99.607843%);fill-opacity:1;" d="M 15.078125 13.515625 C 15.078125 16.277344 15.078125 19.035156 15.078125 21.796875 C 14.503906 21.796875 13.933594 21.796875 13.359375 21.796875 C 13.234375 21.570312 13.15625 21.308594 13.125 21.015625 C 11.894531 22.382812 10.90625 22.226562 10.15625 20.546875 C 9.65625 18.714844 10.152344 17.230469 11.640625 16.09375 C 12.171875 15.867188 12.667969 15.578125 13.125 15.234375 C 13.230469 14.609375 13.230469 13.984375 13.125 13.359375 C 12.90625 13.042969 12.648438 12.992188 12.34375 13.203125 C 12.140625 13.648438 12.0625 14.117188 12.109375 14.609375 C 11.484375 14.609375 10.859375 14.609375 10.234375 14.609375 C 10.296875 12.070312 11.546875 11.109375 13.984375 11.71875 C 14.609375 12.164062 14.976562 12.761719 15.078125 13.515625 Z M 15.078125 13.515625 "/>
<path style=" stroke:none;fill-rule:evenodd;fill:rgb(92.156863%,92.156863%,92.156863%);fill-opacity:1;" d="M 7.109375 10.390625 C 7.261719 11.140625 7.316406 11.921875 7.265625 12.734375 C 7.839844 12.734375 8.410156 12.734375 8.984375 12.734375 C 8.984375 11.953125 8.984375 11.171875 8.984375 10.390625 C 9.140625 11.195312 9.191406 12.027344 9.140625 12.890625 C 8.464844 12.890625 7.785156 12.890625 7.109375 12.890625 C 7.109375 12.058594 7.109375 11.222656 7.109375 10.390625 Z M 7.109375 10.390625 "/>
<path style=" stroke:none;fill-rule:evenodd;fill:rgb(90.196078%,90.196078%,90.196078%);fill-opacity:1;" d="M 15.078125 13.515625 C 15.234375 16.300781 15.285156 19.113281 15.234375 21.953125 C 14.578125 22.003906 13.953125 21.949219 13.359375 21.796875 C 13.933594 21.796875 14.503906 21.796875 15.078125 21.796875 C 15.078125 19.035156 15.078125 16.277344 15.078125 13.515625 Z M 15.078125 13.515625 "/>
<path style=" stroke:none;fill-rule:evenodd;fill:rgb(87.058824%,87.058824%,87.058824%);fill-opacity:1;" d="M 13.046875 16.953125 C 13.226562 17.863281 13.253906 18.800781 13.125 19.765625 C 12.84375 20.0625 12.503906 20.140625 12.109375 20 C 11.679688 18.738281 11.992188 17.722656 13.046875 16.953125 Z M 13.046875 16.953125 "/>
</g>
</svg>
