<?xml version="1.0" encoding="UTF-8"?>
<svg xmlns="https://www.w3.org/2000/svg" xmlns:xlink="https://www.w3.org/1999/xlink" width="30px" height="30px" viewBox="0 0 30 30" version="1.1">
<defs>
<filter id="alpha" filterUnits="objectBoundingBox" x="0%" y="0%" width="100%" height="100%">
  <feColorMatrix type="matrix" in="SourceGraphic" values="0 0 0 0 1 0 0 0 0 1 0 0 0 0 1 0 0 0 1 0"/>
</filter>
<mask id="mask0">
  <g filter="url(#alpha)">
<rect x="0" y="0" width="30" height="30" style="fill:rgb(0%,0%,0%);fill-opacity:0.996078;stroke:none;"/>
  </g>
</mask>
<clipPath id="clip1">
  <rect x="0" y="0" width="30" height="30"/>
</clipPath>
<g id="surface5" clip-path="url(#clip1)">
<path style=" stroke:none;fill-rule:evenodd;fill:rgb(100%,86.666667%,66.666667%);fill-opacity:1;" d="M 1.640625 -0.078125 C 10.496094 -0.078125 19.347656 -0.078125 28.203125 -0.078125 C 28.828125 0.441406 29.402344 1.015625 29.921875 1.640625 C 29.921875 10.496094 29.921875 19.347656 29.921875 28.203125 C 29.402344 28.828125 28.828125 29.402344 28.203125 29.921875 C 19.347656 29.921875 10.496094 29.921875 1.640625 29.921875 C 1.015625 29.402344 0.441406 28.828125 -0.078125 28.203125 C -0.078125 19.347656 -0.078125 10.496094 -0.078125 1.640625 C 0.441406 1.015625 1.015625 0.441406 1.640625 -0.078125 Z M 1.640625 -0.078125 "/>
</g>
</defs>
<g id="surface1">
<use xlink:href="#surface5" mask="url(#mask0)"/>
<path style=" stroke:none;fill-rule:evenodd;fill:rgb(100%,99.215686%,98.431373%);fill-opacity:1;" d="M 5.390625 7.890625 C 7.109375 7.652344 8.28125 8.332031 8.90625 9.921875 C 8.984375 10.859375 9.011719 11.796875 8.984375 12.734375 C 8.359375 12.734375 7.734375 12.734375 7.109375 12.734375 C 7.136719 11.953125 7.109375 11.171875 7.03125 10.390625 C 6.726562 9.90625 6.3125 9.800781 5.78125 10.078125 C 5.675781 13.253906 5.675781 16.433594 5.78125 19.609375 C 6.105469 19.945312 6.46875 19.996094 6.875 19.765625 C 7.09375 18.898438 7.171875 18.015625 7.109375 17.109375 C 7.734375 17.109375 8.359375 17.109375 8.984375 17.109375 C 9.011719 17.996094 8.984375 18.882812 8.90625 19.765625 C 8.238281 21.726562 6.910156 22.378906 4.921875 21.71875 C 4.191406 21.199219 3.75 20.496094 3.59375 19.609375 C 3.488281 16.484375 3.488281 13.359375 3.59375 10.234375 C 3.816406 9.152344 4.417969 8.371094 5.390625 7.890625 Z M 5.390625 7.890625 "/>
<path style=" stroke:none;fill-rule:evenodd;fill:rgb(100%,99.607843%,98.823529%);fill-opacity:1;" d="M 22.734375 7.890625 C 25.144531 7.722656 26.289062 8.839844 26.171875 11.25 C 26.144531 12.683594 25.859375 14.0625 25.3125 15.390625 C 24.691406 16.839844 23.988281 18.246094 23.203125 19.609375 C 24.238281 19.765625 25.28125 19.816406 26.328125 19.765625 C 26.328125 20.441406 26.328125 21.121094 26.328125 21.796875 C 24.503906 21.796875 22.683594 21.796875 20.859375 21.796875 C 20.832031 21.066406 20.859375 20.335938 20.9375 19.609375 C 22.132812 17.683594 23.125 15.652344 23.90625 13.515625 C 24.128906 12.378906 24.179688 11.230469 24.0625 10.078125 C 23.792969 9.75 23.480469 9.699219 23.125 9.921875 C 22.90625 10.734375 22.828125 11.570312 22.890625 12.421875 C 22.214844 12.421875 21.535156 12.421875 20.859375 12.421875 C 20.773438 11.296875 20.902344 10.203125 21.25 9.140625 C 21.585938 8.515625 22.082031 8.097656 22.734375 7.890625 Z M 22.734375 7.890625 "/>
<path style=" stroke:none;fill-rule:evenodd;fill:rgb(100%,99.215686%,98.431373%);fill-opacity:1;" d="M 18.046875 8.046875 C 18.515625 8.046875 18.984375 8.046875 19.453125 8.046875 C 19.453125 12.628906 19.453125 17.214844 19.453125 21.796875 C 18.777344 21.796875 18.097656 21.796875 17.421875 21.796875 C 17.421875 18.203125 17.421875 14.609375 17.421875 11.015625 C 16.953125 11.015625 16.484375 11.015625 16.015625 11.015625 C 16.015625 10.546875 16.015625 10.078125 16.015625 9.609375 C 17.019531 9.5 17.699219 8.976562 18.046875 8.046875 Z M 18.046875 8.046875 "/>
<path style=" stroke:none;fill-rule:evenodd;fill:rgb(100%,99.607843%,98.823529%);fill-opacity:1;" d="M 11.796875 11.484375 C 13.363281 11.15625 14.433594 11.730469 15 13.203125 C 15.078125 16.066406 15.105469 18.933594 15.078125 21.796875 C 14.453125 21.796875 13.828125 21.796875 13.203125 21.796875 C 13.246094 21.515625 13.195312 21.257812 13.046875 21.015625 C 12.296875 22.117188 11.4375 22.222656 10.46875 21.328125 C 9.691406 19.835938 9.742188 18.378906 10.625 16.953125 C 11.363281 16.285156 12.171875 15.710938 13.046875 15.234375 C 13.28125 14.5 13.230469 13.796875 12.890625 13.125 C 12.597656 13.015625 12.363281 13.09375 12.1875 13.359375 C 12.109375 13.773438 12.082031 14.191406 12.109375 14.609375 C 11.484375 14.609375 10.859375 14.609375 10.234375 14.609375 C 10.015625 13.171875 10.539062 12.128906 11.796875 11.484375 Z M 11.796875 11.484375 "/>
<path style=" stroke:none;fill-rule:evenodd;fill:rgb(100%,87.45098%,69.019608%);fill-opacity:1;" d="M 12.890625 16.953125 C 13.097656 17.332031 13.199219 17.773438 13.203125 18.28125 C 13.175781 18.722656 13.152344 19.167969 13.125 19.609375 C 12.679688 20.21875 12.261719 20.21875 11.875 19.609375 C 11.6875 18.523438 12.027344 17.636719 12.890625 16.953125 Z M 12.890625 16.953125 "/>
</g>
</svg>
