<?xml version="1.0" encoding="UTF-8"?>
<svg xmlns="http://www.w3.org/2000/svg" xmlns:xlink="http://www.w3.org/1999/xlink" width="30px" height="30px" viewBox="0 0 30 30" version="1.1">
<defs>
<filter id="alpha" filterUnits="objectBoundingBox" x="0%" y="0%" width="100%" height="100%">
  <feColorMatrix type="matrix" in="SourceGraphic" values="0 0 0 0 1 0 0 0 0 1 0 0 0 0 1 0 0 0 1 0"/>
</filter>
<mask id="mask0">
  <g filter="url(#alpha)">
<rect x="0" y="0" width="30" height="30" style="fill:rgb(0%,0%,0%);fill-opacity:0.996078;stroke:none;"/>
  </g>
</mask>
<clipPath id="clip1">
  <rect x="0" y="0" width="30" height="30"/>
</clipPath>
<g id="surface5" clip-path="url(#clip1)">
<path style=" stroke:none;fill-rule:evenodd;fill:rgb(100%,33.72549%,66.666667%);fill-opacity:1;" d="M 1.640625 -0.078125 C 10.496094 -0.078125 19.347656 -0.078125 28.203125 -0.078125 C 28.828125 0.441406 29.402344 1.015625 29.921875 1.640625 C 29.921875 10.496094 29.921875 19.347656 29.921875 28.203125 C 29.402344 28.828125 28.828125 29.402344 28.203125 29.921875 C 19.347656 29.921875 10.496094 29.921875 1.640625 29.921875 C 1.015625 29.402344 0.441406 28.828125 -0.078125 28.203125 C -0.078125 19.347656 -0.078125 10.496094 -0.078125 1.640625 C 0.441406 1.015625 1.015625 0.441406 1.640625 -0.078125 Z M 1.640625 -0.078125 "/>
</g>
</defs>
<g id="surface1">
<use xlink:href="#surface5" mask="url(#mask0)"/>
<path style=" stroke:none;fill-rule:evenodd;fill:rgb(100%,98.823529%,99.215686%);fill-opacity:1;" d="M 9.921875 8.203125 C 9.921875 9.402344 9.921875 10.597656 9.921875 11.796875 C 9.140625 11.796875 8.359375 11.796875 7.578125 11.796875 C 7.628906 10.882812 7.578125 9.996094 7.421875 9.140625 C 7.339844 8.148438 6.820312 7.808594 5.859375 8.125 C 5.671875 8.265625 5.542969 8.449219 5.46875 8.671875 C 5.441406 10.730469 5.417969 12.785156 5.390625 14.84375 C 5.367188 17.066406 5.445312 19.28125 5.625 21.484375 C 6.144531 22.109375 6.667969 22.109375 7.1875 21.484375 C 7.410156 20.355469 7.488281 19.210938 7.421875 18.046875 C 8.253906 18.046875 9.089844 18.046875 9.921875 18.046875 C 9.921875 19.191406 9.921875 20.339844 9.921875 21.484375 C 9.324219 23.949219 7.761719 24.964844 5.234375 24.53125 C 3.765625 23.96875 2.90625 22.898438 2.65625 21.328125 C 2.550781 17.003906 2.550781 12.683594 2.65625 8.359375 C 3.6875 5.328125 5.640625 4.523438 8.515625 5.9375 C 9.214844 6.554688 9.683594 7.3125 9.921875 8.203125 Z M 9.921875 8.203125 "/>
<path style=" stroke:none;fill-rule:evenodd;fill:rgb(100%,98.823529%,99.215686%);fill-opacity:1;" d="M 22.578125 5.234375 C 24.320312 4.972656 25.703125 5.546875 26.71875 6.953125 C 26.851562 7.199219 26.957031 7.460938 27.03125 7.734375 C 27.207031 9.992188 27.285156 12.257812 27.265625 14.53125 C 27.285156 16.90625 27.207031 19.277344 27.03125 21.640625 C 26.433594 24.054688 24.898438 25.015625 22.421875 24.53125 C 20.945312 23.898438 20.140625 22.78125 20 21.171875 C 19.921875 20.550781 19.894531 19.925781 19.921875 19.296875 C 20.859375 19.296875 21.796875 19.296875 22.734375 19.296875 C 22.664062 20.214844 22.792969 21.101562 23.125 21.953125 C 23.535156 22.375 23.902344 22.320312 24.21875 21.796875 C 24.492188 20.296875 24.519531 18.785156 24.296875 17.265625 C 21.753906 18.242188 20.320312 17.355469 20 14.609375 C 19.894531 12.527344 19.894531 10.441406 20 8.359375 C 20.265625 6.816406 21.125 5.777344 22.578125 5.234375 Z M 22.578125 5.234375 "/>
<path style=" stroke:none;fill-rule:evenodd;fill:rgb(100%,34.901961%,67.45098%);fill-opacity:1;" d="M 23.203125 7.734375 C 23.777344 7.613281 24.167969 7.820312 24.375 8.359375 C 24.480469 10.496094 24.480469 12.628906 24.375 14.765625 C 23.855469 15.597656 23.332031 15.597656 22.8125 14.765625 C 22.707031 12.628906 22.707031 10.496094 22.8125 8.359375 C 22.914062 8.128906 23.046875 7.917969 23.203125 7.734375 Z M 23.203125 7.734375 "/>
<path style=" stroke:none;fill-rule:evenodd;fill:rgb(100%,98.823529%,99.215686%);fill-opacity:1;" d="M 14.296875 10.078125 C 16.296875 9.867188 17.625 10.699219 18.28125 12.578125 C 18.316406 16.539062 18.394531 20.496094 18.515625 24.453125 C 17.679688 24.480469 16.847656 24.453125 16.015625 24.375 C 15.855469 24.050781 15.726562 23.710938 15.625 23.359375 C 14.140625 25.128906 12.839844 25.027344 11.71875 23.046875 C 11.480469 21.808594 11.425781 20.558594 11.5625 19.296875 C 11.894531 18.347656 12.441406 17.539062 13.203125 16.875 C 13.996094 16.359375 14.804688 15.867188 15.625 15.390625 C 15.75 14.414062 15.726562 13.449219 15.546875 12.5 C 15.191406 12.382812 14.855469 12.40625 14.53125 12.578125 C 14.320312 13.183594 14.242188 13.808594 14.296875 14.453125 C 13.410156 14.453125 12.527344 14.453125 11.640625 14.453125 C 11.5 12.335938 12.382812 10.878906 14.296875 10.078125 Z M 14.296875 10.078125 "/>
<path style=" stroke:none;fill-rule:evenodd;fill:rgb(100%,86.666667%,93.333333%);fill-opacity:1;" d="M 9.921875 8.203125 C 10.078125 9.425781 10.128906 10.675781 10.078125 11.953125 C 9.191406 11.953125 8.308594 11.953125 7.421875 11.953125 C 7.421875 11.015625 7.421875 10.078125 7.421875 9.140625 C 7.578125 9.996094 7.628906 10.882812 7.578125 11.796875 C 8.359375 11.796875 9.140625 11.796875 9.921875 11.796875 C 9.921875 10.597656 9.921875 9.402344 9.921875 8.203125 Z M 9.921875 8.203125 "/>
<path style=" stroke:none;fill-rule:evenodd;fill:rgb(100%,34.901961%,67.058824%);fill-opacity:1;" d="M 15.546875 17.890625 C 15.703125 18.957031 15.753906 20.050781 15.703125 21.171875 C 15.511719 21.808594 15.09375 22.09375 14.453125 22.03125 C 13.660156 20.484375 13.921875 19.128906 15.234375 17.96875 C 15.328125 17.894531 15.429688 17.871094 15.546875 17.890625 Z M 15.546875 17.890625 "/>
<path style=" stroke:none;fill-rule:evenodd;fill:rgb(100%,80.392157%,89.803922%);fill-opacity:1;" d="M 15.546875 17.890625 C 15.554688 17.804688 15.609375 17.753906 15.703125 17.734375 C 15.910156 18.90625 15.910156 20.050781 15.703125 21.171875 C 15.753906 20.050781 15.703125 18.957031 15.546875 17.890625 Z M 15.546875 17.890625 "/>
<path style=" stroke:none;fill-rule:evenodd;fill:rgb(100%,78.431373%,89.019608%);fill-opacity:1;" d="M 7.421875 18.046875 C 8.277344 17.890625 9.164062 17.839844 10.078125 17.890625 C 10.128906 19.117188 10.078125 20.316406 9.921875 21.484375 C 9.921875 20.339844 9.921875 19.191406 9.921875 18.046875 C 9.089844 18.046875 8.253906 18.046875 7.421875 18.046875 Z M 7.421875 18.046875 "/>
</g>
</svg>
