<?xml version="1.0" encoding="UTF-8"?>
<svg xmlns="http://www.w3.org/2000/svg" xmlns:xlink="http://www.w3.org/1999/xlink" width="30px" height="30px" viewBox="0 0 30 30" version="1.1">
<defs>
<filter id="alpha" filterUnits="objectBoundingBox" x="0%" y="0%" width="100%" height="100%">
  <feColorMatrix type="matrix" in="SourceGraphic" values="0 0 0 0 1 0 0 0 0 1 0 0 0 0 1 0 0 0 1 0"/>
</filter>
<mask id="mask0">
  <g filter="url(#alpha)">
<rect x="0" y="0" width="30" height="30" style="fill:rgb(0%,0%,0%);fill-opacity:0.996078;stroke:none;"/>
  </g>
</mask>
<clipPath id="clip1">
  <rect x="0" y="0" width="30" height="30"/>
</clipPath>
<g id="surface5" clip-path="url(#clip1)">
<path style=" stroke:none;fill-rule:evenodd;fill:rgb(100%,66.666667%,66.666667%);fill-opacity:1;" d="M 1.640625 -0.078125 C 10.496094 -0.078125 19.347656 -0.078125 28.203125 -0.078125 C 28.828125 0.441406 29.402344 1.015625 29.921875 1.640625 C 29.921875 10.496094 29.921875 19.347656 29.921875 28.203125 C 29.402344 28.828125 28.828125 29.402344 28.203125 29.921875 C 19.347656 29.921875 10.496094 29.921875 1.640625 29.921875 C 1.015625 29.402344 0.441406 28.828125 -0.078125 28.203125 C -0.078125 19.347656 -0.078125 10.496094 -0.078125 1.640625 C 0.441406 1.015625 1.015625 0.441406 1.640625 -0.078125 Z M 1.640625 -0.078125 "/>
</g>
</defs>
<g id="surface1">
<use xlink:href="#surface5" mask="url(#mask0)"/>
<path style=" stroke:none;fill-rule:evenodd;fill:rgb(100%,98.823529%,98.823529%);fill-opacity:1;" d="M 6.640625 7.890625 C 8.539062 7.609375 9.710938 8.390625 10.15625 10.234375 C 10.234375 11.066406 10.261719 11.898438 10.234375 12.734375 C 9.609375 12.734375 8.984375 12.734375 8.359375 12.734375 C 8.386719 11.953125 8.359375 11.171875 8.28125 10.390625 C 7.949219 9.929688 7.53125 9.824219 7.03125 10.078125 C 6.851562 11.679688 6.773438 13.292969 6.796875 14.921875 C 6.773438 16.550781 6.851562 18.164062 7.03125 19.765625 C 7.613281 20.039062 8.03125 19.882812 8.28125 19.296875 C 8.359375 18.570312 8.386719 17.839844 8.359375 17.109375 C 8.984375 17.109375 9.609375 17.109375 10.234375 17.109375 C 10.277344 18.160156 10.199219 19.203125 10 20.234375 C 9.148438 21.769531 7.871094 22.265625 6.171875 21.71875 C 5.523438 21.285156 5.082031 20.6875 4.84375 19.921875 C 4.738281 16.589844 4.738281 13.253906 4.84375 9.921875 C 5.203125 9.015625 5.800781 8.339844 6.640625 7.890625 Z M 6.640625 7.890625 "/>
<path style=" stroke:none;fill-rule:evenodd;fill:rgb(100%,99.215686%,99.215686%);fill-opacity:1;" d="M 19.296875 8.046875 C 19.714844 8.046875 20.128906 8.046875 20.546875 8.046875 C 20.546875 12.628906 20.546875 17.214844 20.546875 21.796875 C 19.871094 21.796875 19.191406 21.796875 18.515625 21.796875 C 18.515625 18.203125 18.515625 14.609375 18.515625 11.015625 C 18.097656 11.015625 17.683594 11.015625 17.265625 11.015625 C 17.265625 10.546875 17.265625 10.078125 17.265625 9.609375 C 18.269531 9.5 18.949219 8.976562 19.296875 8.046875 Z M 19.296875 8.046875 "/>
<path style=" stroke:none;fill-rule:evenodd;fill:rgb(100%,98.823529%,98.823529%);fill-opacity:1;" d="M 23.828125 8.046875 C 24.246094 8.046875 24.660156 8.046875 25.078125 8.046875 C 25.078125 12.628906 25.078125 17.214844 25.078125 21.796875 C 24.402344 21.796875 23.722656 21.796875 23.046875 21.796875 C 23.046875 18.203125 23.046875 14.609375 23.046875 11.015625 C 22.628906 11.015625 22.214844 11.015625 21.796875 11.015625 C 21.796875 10.546875 21.796875 10.078125 21.796875 9.609375 C 22.742188 9.449219 23.417969 8.925781 23.828125 8.046875 Z M 23.828125 8.046875 "/>
<path style=" stroke:none;fill-rule:evenodd;fill:rgb(100%,98.823529%,98.823529%);fill-opacity:1;" d="M 12.890625 11.484375 C 14.269531 11.164062 15.335938 11.578125 16.09375 12.734375 C 16.128906 15.757812 16.207031 18.78125 16.328125 21.796875 C 15.695312 21.847656 15.070312 21.796875 14.453125 21.640625 C 14.359375 21.4375 14.28125 21.230469 14.21875 21.015625 C 13.769531 21.75 13.117188 22.035156 12.265625 21.875 C 11.445312 21.230469 11.078125 20.371094 11.171875 19.296875 C 11.113281 18.035156 11.582031 17.019531 12.578125 16.25 C 13.136719 15.929688 13.683594 15.59375 14.21875 15.234375 C 14.34375 14.519531 14.316406 13.816406 14.140625 13.125 C 13.890625 13.011719 13.65625 13.039062 13.4375 13.203125 C 13.359375 13.667969 13.332031 14.136719 13.359375 14.609375 C 12.683594 14.609375 12.003906 14.609375 11.328125 14.609375 C 11.269531 13.265625 11.789062 12.226562 12.890625 11.484375 Z M 12.890625 11.484375 "/>
<path style=" stroke:none;fill-rule:evenodd;fill:rgb(100%,67.45098%,67.45098%);fill-opacity:1;" d="M 13.984375 17.109375 C 14.191406 17.488281 14.292969 17.929688 14.296875 18.4375 C 14.269531 18.878906 14.246094 19.324219 14.21875 19.765625 C 13.390625 20.273438 13 20.011719 13.046875 18.984375 C 13.0625 18.605469 13.140625 18.242188 13.28125 17.890625 C 13.546875 17.652344 13.78125 17.390625 13.984375 17.109375 Z M 13.984375 17.109375 "/>
</g>
</svg>
