<?xml version="1.0" encoding="UTF-8"?>
<svg xmlns="http://www.w3.org/2000/svg" xmlns:xlink="http://www.w3.org/1999/xlink" width="30px" height="30px" viewBox="0 0 30 30" version="1.1">
<defs>
<filter id="alpha" filterUnits="objectBoundingBox" x="0%" y="0%" width="100%" height="100%">
  <feColorMatrix type="matrix" in="SourceGraphic" values="0 0 0 0 1 0 0 0 0 1 0 0 0 0 1 0 0 0 1 0"/>
</filter>
<mask id="mask0">
  <g filter="url(#alpha)">
<rect x="0" y="0" width="30" height="30" style="fill:rgb(0%,0%,0%);fill-opacity:0.996078;stroke:none;"/>
  </g>
</mask>
<clipPath id="clip1">
  <rect x="0" y="0" width="30" height="30"/>
</clipPath>
<g id="surface5" clip-path="url(#clip1)">
<path style=" stroke:none;fill-rule:evenodd;fill:rgb(100%,33.72549%,100%);fill-opacity:1;" d="M 1.640625 -0.078125 C 10.496094 -0.078125 19.347656 -0.078125 28.203125 -0.078125 C 28.828125 0.441406 29.402344 1.015625 29.921875 1.640625 C 29.921875 10.496094 29.921875 19.347656 29.921875 28.203125 C 29.402344 28.828125 28.828125 29.402344 28.203125 29.921875 C 19.347656 29.921875 10.496094 29.921875 1.640625 29.921875 C 1.015625 29.402344 0.441406 28.828125 -0.078125 28.203125 C -0.078125 19.347656 -0.078125 10.496094 -0.078125 1.640625 C 0.441406 1.015625 1.015625 0.441406 1.640625 -0.078125 Z M 1.640625 -0.078125 "/>
</g>
</defs>
<g id="surface1">
<use xlink:href="#surface5" mask="url(#mask0)"/>
<path style=" stroke:none;fill-rule:evenodd;fill:rgb(100%,98.823529%,100%);fill-opacity:1;" d="M 7.421875 18.046875 C 8.253906 18.046875 9.089844 18.046875 9.921875 18.046875 C 9.921875 19.089844 9.921875 20.128906 9.921875 21.171875 C 9.632812 23.308594 8.40625 24.457031 6.25 24.609375 C 4.09375 24.488281 2.898438 23.339844 2.65625 21.171875 C 2.550781 16.902344 2.550781 12.628906 2.65625 8.359375 C 3.375 5.800781 5.015625 4.835938 7.578125 5.46875 C 8.710938 5.925781 9.46875 6.734375 9.84375 7.890625 C 10.0625 9.230469 10.140625 10.585938 10.078125 11.953125 C 9.191406 11.953125 8.308594 11.953125 7.421875 11.953125 C 7.449219 10.859375 7.421875 9.765625 7.34375 8.671875 C 7.023438 8.078125 6.527344 7.898438 5.859375 8.125 C 5.78125 8.203125 5.703125 8.28125 5.625 8.359375 C 5.445312 10.53125 5.367188 12.71875 5.390625 14.921875 C 5.367188 17.125 5.445312 19.3125 5.625 21.484375 C 6.144531 22.109375 6.667969 22.109375 7.1875 21.484375 C 7.40625 20.351562 7.484375 19.207031 7.421875 18.046875 Z M 7.421875 18.046875 "/>
<path style=" stroke:none;fill-rule:evenodd;fill:rgb(100%,98.823529%,100%);fill-opacity:1;" d="M 22.421875 5.234375 C 23.925781 5.003906 25.253906 5.371094 26.40625 6.328125 C 26.742188 6.738281 26.949219 7.207031 27.03125 7.734375 C 27.136719 9.347656 27.136719 10.964844 27.03125 12.578125 C 26.894531 13.339844 26.503906 13.9375 25.859375 14.375 C 26.484375 14.84375 26.925781 15.441406 27.1875 16.171875 C 27.292969 17.941406 27.292969 19.714844 27.1875 21.484375 C 26.542969 24.058594 24.902344 25.074219 22.265625 24.53125 C 21.066406 24.0625 20.3125 23.203125 20 21.953125 C 19.894531 19.972656 19.894531 17.996094 20 16.015625 C 20.203125 15.347656 20.59375 14.828125 21.171875 14.453125 C 20.539062 13.917969 20.148438 13.242188 20 12.421875 C 19.894531 10.964844 19.894531 9.503906 20 8.046875 C 20.28125 6.644531 21.089844 5.707031 22.421875 5.234375 Z M 22.421875 5.234375 "/>
<path style=" stroke:none;fill-rule:evenodd;fill:rgb(100%,37.647059%,100%);fill-opacity:1;" d="M 23.203125 7.734375 C 23.996094 7.640625 24.386719 8.007812 24.375 8.828125 C 24.542969 10.207031 24.441406 11.5625 24.0625 12.890625 C 23.792969 13.21875 23.480469 13.269531 23.125 13.046875 C 22.972656 12.75 22.867188 12.4375 22.8125 12.109375 C 22.707031 10.964844 22.707031 9.816406 22.8125 8.671875 C 22.847656 8.3125 22.980469 8 23.203125 7.734375 Z M 23.203125 7.734375 "/>
<path style=" stroke:none;fill-rule:evenodd;fill:rgb(100%,98.823529%,100%);fill-opacity:1;" d="M 14.296875 10.078125 C 16.296875 9.867188 17.625 10.699219 18.28125 12.578125 C 18.3125 16.539062 18.390625 20.5 18.515625 24.453125 C 17.679688 24.480469 16.847656 24.453125 16.015625 24.375 C 15.824219 24.007812 15.695312 23.617188 15.625 23.203125 C 15.0625 24.363281 14.152344 24.804688 12.890625 24.53125 C 11.746094 23.605469 11.277344 22.40625 11.484375 20.9375 C 11.292969 19.164062 11.917969 17.757812 13.359375 16.71875 C 14.128906 16.296875 14.882812 15.851562 15.625 15.390625 C 15.75 14.445312 15.722656 13.507812 15.546875 12.578125 C 15.203125 12.378906 14.867188 12.378906 14.53125 12.578125 C 14.320312 13.183594 14.242188 13.808594 14.296875 14.453125 C 13.410156 14.453125 12.527344 14.453125 11.640625 14.453125 C 11.496094 12.347656 12.378906 10.890625 14.296875 10.078125 Z M 14.296875 10.078125 "/>
<path style=" stroke:none;fill-rule:evenodd;fill:rgb(100%,37.647059%,100%);fill-opacity:1;" d="M 23.203125 15.859375 C 23.90625 15.808594 24.347656 16.121094 24.53125 16.796875 C 24.667969 18.417969 24.613281 20.035156 24.375 21.640625 C 23.753906 22.289062 23.179688 22.234375 22.65625 21.484375 C 22.550781 19.816406 22.550781 18.152344 22.65625 16.484375 C 22.871094 16.296875 23.054688 16.085938 23.203125 15.859375 Z M 23.203125 15.859375 "/>
<path style=" stroke:none;fill-rule:evenodd;fill:rgb(100%,35.294118%,100%);fill-opacity:1;" d="M 15.546875 17.734375 C 15.726562 18.957031 15.753906 20.207031 15.625 21.484375 C 15.066406 22.269531 14.542969 22.269531 14.0625 21.484375 C 13.6875 19.867188 14.183594 18.617188 15.546875 17.734375 Z M 15.546875 17.734375 "/>
<path style=" stroke:none;fill-rule:evenodd;fill:rgb(100%,76.078431%,100%);fill-opacity:1;" d="M 7.421875 18.046875 C 8.277344 17.890625 9.164062 17.839844 10.078125 17.890625 C 10.128906 19.011719 10.078125 20.105469 9.921875 21.171875 C 9.921875 20.128906 9.921875 19.089844 9.921875 18.046875 C 9.089844 18.046875 8.253906 18.046875 7.421875 18.046875 Z M 7.421875 18.046875 "/>
</g>
</svg>
