<?xml version="1.0" encoding="UTF-8" standalone="no"?>
<!DOCTYPE svg PUBLIC "-//W3C//DTD SVG 1.1//EN" "http://www.w3.org/Graphics/SVG/1.1/DTD/svg11.dtd">
<svg width="100%" height="100%" viewBox="0 0 30 30" version="1.1" xmlns="http://www.w3.org/2000/svg" xmlns:xlink="http://www.w3.org/1999/xlink" xml:space="preserve" xmlns:serif="http://www.serif.com/" style="fill-rule:evenodd;clip-rule:evenodd;stroke-linejoin:round;stroke-miterlimit:2;">
    <g id="Ebene_1">
        <circle cx="15" cy="15" r="14.8" style="fill:rgb(65,71,152);"/>
        <path d="M15,30C13,30 11,29.6 9.2,28.8C7.4,28 5.8,27 4.4,25.6C3,24.2 1.9,22.6 1.2,20.8C0.4,19 0,17 0,15C0,13 0.4,11 1.2,9.2C1.9,7.4 3,5.8 4.4,4.4C5.8,3 7.4,1.9 9.2,1.2C11,0.4 13,0 15,0C17,0 19,0.4 20.8,1.2C22.6,2 24.2,3 25.6,4.4C27,5.8 28.1,7.4 28.8,9.2C29.6,11 30,13 30,15C30,17 29.6,19 28.8,20.8C28,22.6 27,24.2 25.6,25.6C24.2,27 22.6,28.1 20.8,28.8C19,29.6 17,30 15,30ZM15,0.4C13,0.4 11.1,0.8 9.3,1.5C7.6,2.3 6,3.3 4.7,4.7C3.3,6 2.3,7.6 1.5,9.3C0.8,11.1 0.4,13 0.4,15C0.4,17 0.8,18.9 1.5,20.7C2.2,22.4 3.3,24 4.6,25.3C5.9,26.6 7.5,27.7 9.2,28.4C11,29.2 12.9,29.5 14.9,29.5C16.9,29.5 18.8,29.1 20.6,28.4C22.3,27.7 23.9,26.6 25.2,25.3C26.5,24 27.6,22.4 28.3,20.7C29.1,18.9 29.4,17 29.4,15C29.4,13 29,11.1 28.3,9.3C27.6,7.6 26.5,6 25.2,4.7C23.9,3.4 22.3,2.3 20.6,1.6C18.9,0.8 17,0.4 15,0.4Z" style="fill:white;fill-rule:nonzero;"/>
    </g>
    <g id="Gastro">
        <g>
            <path d="M16,13C15.9,13 15.8,13 15.8,12.9C15.7,12.8 15.7,12.6 15.8,12.4L16.3,11.9C16.1,11.4 16,10.5 16.8,9.8L21,5.5C21.1,5.4 21.3,5.4 21.5,5.5C21.6,5.6 21.6,5.8 21.5,6L17.2,10.3C16.4,11.1 16.9,11.8 16.9,11.9L17,12.1L16.2,12.9C16.2,13 16.1,13 16,13Z" style="fill:white;fill-rule:nonzero;"/>
        </g>
        <g>
            <path d="M7.6,24.1L6.7,24.1L5.9,23.3L5.9,22.4L11.2,17.1C11.3,17 11.5,17 11.7,17.1C11.9,17.2 11.8,17.4 11.7,17.6L6.6,22.7L6.6,23L7.1,23.5L7.5,23.5L13.6,17.4C13.7,17.3 13.9,17.3 14.1,17.4C14.3,17.5 14.2,17.7 14.1,17.9L7.6,24.1Z" style="fill:white;fill-rule:nonzero;"/>
        </g>
        <g>
            <path d="M17.3,14.3C17.2,14.3 17.1,14.3 17.1,14.2C17,14.1 17,13.9 17.1,13.7L17.9,12.9L18.1,13C18.2,13 18.9,13.5 19.7,12.7L24,8.4C24.1,8.3 24.3,8.3 24.5,8.4C24.7,8.5 24.6,8.7 24.5,8.9L20.2,13.2C19.4,14 18.6,13.9 18.1,13.7L17.6,14.2C17.5,14.3 17.4,14.3 17.3,14.3Z" style="fill:white;fill-rule:nonzero;"/>
        </g>
        <g>
            <path d="M18,11.3C17.9,11.3 17.8,11.3 17.8,11.2C17.7,11.1 17.7,10.9 17.8,10.7L22,6.5C22.1,6.4 22.3,6.4 22.5,6.5C22.6,6.6 22.6,6.8 22.5,7L18.2,11.3L18,11.3Z" style="fill:white;fill-rule:nonzero;"/>
        </g>
        <g>
            <path d="M18.9,12.3C18.8,12.3 18.7,12.3 18.7,12.2C18.6,12.1 18.6,11.9 18.7,11.7L23,7.5C23.1,7.4 23.3,7.4 23.5,7.5C23.6,7.6 23.6,7.8 23.5,8L19.2,12.3L18.9,12.3Z" style="fill:white;fill-rule:nonzero;"/>
        </g>
        <g>
            <path d="M23.3,24.1L22.4,24.1L14.9,16.6L12.3,16.6L7.6,11.9C5.9,10.2 5.9,9.8 5.9,8.7C5.9,6.9 7.3,5.9 7.3,5.8L7.5,5.6L24.2,22.3L24.2,23.2L23.3,24.1ZM22.7,23.5L23.1,23.5L23.6,23L23.6,22.6L7.4,6.6C7.1,6.9 6.4,7.7 6.4,8.8C6.4,9.7 6.4,10 7.9,11.5L12.4,16L15,16L22.7,23.5Z" style="fill:white;fill-rule:nonzero;"/>
        </g>
        <g>
            <path d="M11.4,15.6C11.3,15.6 11.2,15.6 11.2,15.5C11.1,15.4 11.1,15.2 11.2,15L11.9,14.3C12,14.2 12.2,14.2 12.4,14.3C12.5,14.4 12.5,14.6 12.4,14.8L11.7,15.5C11.6,15.6 11.5,15.6 11.4,15.6Z" style="fill:white;fill-rule:nonzero;"/>
        </g>
        <g>
            <path d="M10.4,14.6C10.3,14.6 10.2,14.6 10.2,14.5C10.1,14.4 10.1,14.2 10.2,14L10.9,13.3C11,13.2 11.2,13.2 11.4,13.3C11.6,13.4 11.5,13.6 11.4,13.8L10.7,14.5C10.6,14.6 10.5,14.6 10.4,14.6Z" style="fill:white;fill-rule:nonzero;"/>
        </g>
        <g>
            <path d="M9.4,13.6C9.3,13.6 9.2,13.6 9.2,13.5C9.1,13.4 9.1,13.2 9.2,13L9.9,12.3C10,12.2 10.2,12.2 10.4,12.3C10.6,12.4 10.5,12.6 10.4,12.8L9.7,13.5C9.6,13.6 9.5,13.6 9.4,13.6Z" style="fill:white;fill-rule:nonzero;"/>
        </g>
        <g>
            <path d="M8.4,12.7C8.3,12.7 8.2,12.7 8.2,12.6C8.1,12.5 8.1,12.3 8.2,12.1L8.9,11.4C9,11.3 9.2,11.3 9.4,11.4C9.6,11.5 9.5,11.7 9.4,11.9L8.7,12.6C8.6,12.6 8.5,12.7 8.4,12.7Z" style="fill:white;fill-rule:nonzero;"/>
        </g>
        <g>
            <path d="M7.5,11.7C7.4,11.7 7.3,11.7 7.3,11.6C7.2,11.5 7.2,11.3 7.3,11.1L8,10.4C8.1,10.3 8.3,10.3 8.5,10.4C8.7,10.5 8.6,10.7 8.5,10.9L7.8,11.6C7.6,11.6 7.5,11.7 7.5,11.7Z" style="fill:white;fill-rule:nonzero;"/>
        </g>
        <g>
            <path d="M6.2,20.7C5.1,19 4.5,17 4.5,15C4.5,13.7 4.7,12.5 5.2,11.3L5.8,11.5C5.4,12.6 5.2,13.8 5.2,15C5.2,16.9 5.8,18.8 6.8,20.4L6.2,20.7Z" style="fill:white;fill-rule:nonzero;"/>
        </g>
        <g>
            <path d="M15,25.4C12.9,25.4 11,24.8 9.2,23.7L9.6,23.2C11.2,24.3 13.1,24.8 15,24.8C16.9,24.8 18.8,24.2 20.4,23.2L20.8,23.7C19,24.8 17.1,25.4 15,25.4Z" style="fill:white;fill-rule:nonzero;"/>
        </g>
        <g>
            <path d="M23.8,20.7L23.3,20.3C24.4,18.7 24.9,16.8 24.9,14.9C24.9,13.5 24.6,12.1 24,10.8L24.6,10.5C25.2,11.9 25.6,13.3 25.6,14.9C25.5,17 24.9,19 23.8,20.7Z" style="fill:white;fill-rule:nonzero;"/>
        </g>
        <g>
            <path d="M9.6,6.7L9.2,6.2C11,5.1 12.9,4.5 15,4.5C16.6,4.5 18.1,4.9 19.6,5.5L19.3,6.1C18,5.5 16.5,5.1 15,5.1C13.1,5.1 11.2,5.7 9.6,6.7Z" style="fill:white;fill-rule:nonzero;"/>
        </g>
    </g>
</svg>
