<?xml version="1.0" encoding="UTF-8" standalone="no"?>
<!DOCTYPE svg PUBLIC "-//W3C//DTD SVG 1.1//EN" "http://www.w3.org/Graphics/SVG/1.1/DTD/svg11.dtd">
<svg width="100%" height="100%" viewBox="0 0 30 30" version="1.1" xmlns="http://www.w3.org/2000/svg" xmlns:xlink="http://www.w3.org/1999/xlink" xml:space="preserve" xmlns:serif="http://www.serif.com/" style="fill-rule:evenodd;clip-rule:evenodd;stroke-linejoin:round;stroke-miterlimit:2;">
    <g id="Ebene_1">
        <circle cx="15" cy="15" r="14.8" style="fill:rgb(155,190,61);"/>
        <path d="M15,30C13,30 11,29.6 9.2,28.8C7.4,28 5.8,27 4.4,25.6C3,24.2 1.9,22.6 1.2,20.8C0.4,19 0,17 0,15C0,13 0.4,11 1.2,9.2C1.9,7.4 3,5.8 4.4,4.4C5.8,3 7.4,1.9 9.2,1.2C11,0.4 13,0 15,0C17,0 19,0.4 20.8,1.2C22.6,2 24.2,3 25.6,4.4C27,5.8 28.1,7.4 28.8,9.2C29.6,11 30,13 30,15C30,17 29.6,19 28.8,20.8C28.258,22.019 27.624,23.147 26.837,24.182C26.462,24.676 26.052,25.148 25.6,25.6C24.2,27 22.6,28.1 20.8,28.8C19,29.6 17,30 15,30ZM15,0.4C13,0.4 11.1,0.8 9.3,1.5C7.6,2.3 6,3.3 4.7,4.7C3.3,6 2.3,7.6 1.5,9.3C0.8,11.1 0.4,13 0.4,15C0.4,17 0.8,18.9 1.5,20.7C2.2,22.4 3.3,24 4.6,25.3C5.9,26.6 7.5,27.7 9.2,28.4C11,29.2 12.9,29.5 14.9,29.5C16.9,29.5 18.8,29.1 20.6,28.4C22.3,27.7 23.9,26.6 25.2,25.3C26.5,24 27.6,22.4 28.3,20.7C29.1,18.9 29.4,17 29.4,15C29.4,13 29,11.1 28.3,9.3C27.6,7.6 26.5,6 25.2,4.7C23.9,3.4 22.3,2.3 20.6,1.6C18.9,0.8 17,0.4 15,0.4Z" style="fill:white;fill-rule:nonzero;"/>
    </g>
    <g transform="matrix(0.184291,0,0,0.184291,23.2179,20.6153)">
        <path d="M0,-67.251C-28.133,-89.827 -68.085,-87.655 -87.697,-60.131C-108.363,-31.13 -96.207,15.063 -53.256,21.044C-42.253,22.576 -15.282,21.353 -2.084,-7.474L-5.557,19.617C1.042,18.227 6.965,21.024 7.641,21.701C6.599,15.796 6.758,-22.584 8.336,-24.84C4.515,-26.229 3.126,-28.313 1.737,-30.571C-8.412,-27.639 -22.923,-27.098 -32.995,-28.834C-32.432,-26.129 -34.384,-18.762 -34.384,-18.762C-24.05,-16.439 -12.677,-18.762 -3.647,-19.978C-11.315,-6.448 -29.001,13.327 -50.708,10.895C-78.34,7.801 -95.165,-24.878 -80.578,-51.622C-65.352,-79.535 -24.833,-75.587 -8.162,-53.185L0,-67.251Z" style="fill-rule:nonzero;"/>
    </g>
</svg>

