<?xml version="1.0" encoding="UTF-8" standalone="no"?>
<!DOCTYPE svg PUBLIC "-//W3C//DTD SVG 1.1//EN" "http://www.w3.org/Graphics/SVG/1.1/DTD/svg11.dtd">
<svg width="100%" height="100%" viewBox="0 0 30 30" version="1.1" xmlns="http://www.w3.org/2000/svg" xmlns:xlink="http://www.w3.org/1999/xlink" xml:space="preserve" xmlns:serif="http://www.serif.com/" style="fill-rule:evenodd;clip-rule:evenodd;stroke-linejoin:round;stroke-miterlimit:2;">
    <g id="Ebene_1">
        <circle cx="15" cy="15" r="14.8" style="fill:rgb(65,71,152);"/>
        <path d="M15,30C13,30 11,29.6 9.2,28.8C7.4,28 5.8,27 4.4,25.6C3,24.2 1.9,22.6 1.2,20.8C0.4,19 0,17 0,15C0,13 0.4,11 1.2,9.2C1.9,7.4 3,5.8 4.4,4.4C5.8,3 7.4,1.9 9.2,1.2C11,0.4 13,0 15,0C17,0 19,0.4 20.8,1.2C22.6,2 24.2,3 25.6,4.4C27,5.8 28.1,7.4 28.8,9.2C29.6,11 30,13 30,15C30,17 29.6,19 28.8,20.8C28,22.6 27,24.2 25.6,25.6C24.2,27 22.6,28.1 20.8,28.8C19,29.6 17,30 15,30ZM15,0.4C13,0.4 11.1,0.8 9.3,1.5C7.6,2.3 6,3.3 4.7,4.7C3.3,6 2.3,7.6 1.5,9.3C0.8,11.1 0.4,13 0.4,15C0.4,17 0.8,18.9 1.5,20.7C2.2,22.4 3.3,24 4.6,25.3C5.9,26.6 7.5,27.7 9.2,28.4C11,29.2 12.9,29.5 14.9,29.5C16.9,29.5 18.8,29.1 20.6,28.4C22.3,27.7 23.9,26.6 25.2,25.3C26.5,24 27.6,22.4 28.3,20.7C29.1,18.9 29.4,17 29.4,15C29.4,13 29,11.1 28.3,9.3C27.6,7.6 26.5,6 25.2,4.7C23.9,3.4 22.3,2.3 20.6,1.6C18.9,0.8 17,0.4 15,0.4Z" style="fill:white;fill-rule:nonzero;"/>
    </g>
    <g id="Kindergarten">
        <g>
            <rect x="19.5" y="18" width="0.5" height="6.3" style="fill:white;"/>
        </g>
        <g>
            <path d="M22,24.3L21.5,24.3L21.5,16.9L22.6,16.9L22.6,12.8C22.6,11.9 21.9,11.2 21,11.2L18.8,11.2C17.9,11.2 17.4,11.9 17.4,11.9L15.3,15.1L14.8,14.8L16.9,11.6C16.9,11.6 17.5,10.7 18.8,10.7L21,10.7C22.2,10.7 23.2,11.7 23.2,12.9L23.2,17.5L22,17.5L22,24.3Z" style="fill:white;fill-rule:nonzero;"/>
        </g>
        <g>
            <rect x="19.5" y="11.7" width="0.5" height="0.5" style="fill:white;"/>
        </g>
        <g>
            <rect x="19.5" y="12.8" width="0.5" height="0.5" style="fill:white;"/>
        </g>
        <g>
            <rect x="9.7" y="18" width="0.5" height="6.3" style="fill:white;"/>
        </g>
        <g>
            <path d="M10.2,10.3C8.9,10.3 7.9,9.3 7.9,8C7.9,6.7 8.9,5.7 10.2,5.7C11.5,5.7 12.5,6.7 12.5,8C12.5,9.3 11.5,10.3 10.2,10.3ZM10.2,6.2C9.2,6.2 8.4,7 8.4,8C8.4,9 9.2,9.8 10.2,9.8C11.2,9.8 12,8.9 12,8C12,7.1 11.2,6.2 10.2,6.2Z" style="fill:white;fill-rule:nonzero;"/>
        </g>
        <g>
            <path d="M19.8,10.3C18.5,10.3 17.5,9.3 17.5,8C17.5,6.7 18.5,5.7 19.8,5.7C21.1,5.7 22.1,6.7 22.1,8C22.1,9.3 21.1,10.3 19.8,10.3ZM19.8,6.2C18.8,6.2 18,7 18,8C18,9 18.8,9.8 19.8,9.8C20.8,9.8 21.6,9 21.6,8C21.6,7 20.8,6.2 19.8,6.2Z" style="fill:white;fill-rule:nonzero;"/>
        </g>
        <g>
            <path d="M8.4,24.3L7.8,24.3L7.8,17.5L6.7,17.5L6.7,12.9C6.7,11.7 7.7,10.7 8.8,10.7L11,10.7C12.3,10.7 12.9,11.6 12.9,11.6L15.9,16L15.5,16.3L12.5,11.9C12.5,11.9 12,11.2 11.1,11.2L8.9,11.2C8,11.2 7.3,11.9 7.3,12.8L7.3,16.9L8.4,16.9L8.4,24.3Z" style="fill:white;fill-rule:nonzero;"/>
        </g>
        <g>
            <path d="M18.4,24.3L17.7,24.3L17.7,14.6L15.2,17.1C15.1,17.2 14.9,17.2 14.8,17.1L12.3,14.6L12.3,24.3L11.8,24.3L11.8,13.9C11.8,13.8 11.9,13.7 12,13.6C12.1,13.6 12.2,13.6 12.3,13.7L15.1,16.5L17.9,13.7C18,13.6 18.1,13.6 18.2,13.6C18.3,13.6 18.4,13.7 18.4,13.9L18.4,24.3Z" style="fill:white;fill-rule:nonzero;"/>
        </g>
    </g>
</svg>
