<?xml version="1.0" encoding="UTF-8" standalone="no"?>
<!DOCTYPE svg PUBLIC "-//W3C//DTD SVG 1.1//EN" "https://www.w3.org/Graphics/SVG/1.1/DTD/svg11.dtd">
<svg width="100%" height="100%" viewBox="0 0 30 30" version="1.1" xmlns="https://www.w3.org/2000/svg" xmlns:xlink="https://www.w3.org/1999/xlink" xml:space="preserve" xmlns:serif="https://www.serif.com/" style="fill-rule:evenodd;clip-rule:evenodd;stroke-linejoin:round;stroke-miterlimit:2;">
    <g id="Ebene_1">
        <circle cx="15" cy="15" r="14.8" style="fill:rgb(65,71,152);"/>
        <path d="M15,30C13,30 11,29.6 9.2,28.8C7.4,28 5.8,27 4.4,25.6C3,24.2 1.9,22.6 1.2,20.8C0.4,19 0,17 0,15C0,13 0.4,11 1.2,9.2C1.9,7.4 3,5.8 4.4,4.4C5.8,3 7.4,1.9 9.2,1.2C11,0.4 13,0 15,0C17,0 19,0.4 20.8,1.2C22.6,2 24.2,3 25.6,4.4C27,5.8 28.1,7.4 28.8,9.2C29.6,11 30,13 30,15C30,17 29.6,19 28.8,20.8C28,22.6 27,24.2 25.6,25.6C24.2,27 22.6,28.1 20.8,28.8C19,29.6 17,30 15,30ZM15,0.4C13,0.4 11.1,0.8 9.3,1.5C7.6,2.3 6,3.3 4.7,4.7C3.3,6 2.3,7.6 1.5,9.3C0.8,11.1 0.4,13 0.4,15C0.4,17 0.8,18.9 1.5,20.7C2.2,22.4 3.3,24 4.6,25.3C5.9,26.6 7.5,27.7 9.2,28.4C11,29.2 12.9,29.5 14.9,29.5C16.9,29.5 18.8,29.1 20.6,28.4C22.3,27.7 23.9,26.6 25.2,25.3C26.5,24 27.6,22.4 28.3,20.7C29.1,18.9 29.4,17 29.4,15C29.4,13 29,11.1 28.3,9.3C27.6,7.6 26.5,6 25.2,4.7C23.9,3.4 22.3,2.3 20.6,1.6C18.9,0.8 17,0.4 15,0.4Z" style="fill:white;fill-rule:nonzero;"/>
    </g>
    <g id="Ärzte">
        <g>
            <rect x="8.6" y="22.8" width="0.7" height="2" style="fill:white;"/>
        </g>
        <g>
            <rect x="20.7" y="22.8" width="0.7" height="2" style="fill:white;"/>
        </g>
        <g>
            <path d="M6.1,24.8L5.3,24.8L5.3,20.4C5.3,17.9 8.4,16.9 9.9,16.4L11.9,15.4C12.3,15.1 12.7,14.8 12.7,14.7L12.7,13.7L13.4,13.7L13.4,14.7C13.4,15.1 12.8,15.6 12.2,16L10.2,17C8.1,17.7 6.1,18.6 6.1,20.4L6.1,24.8Z" style="fill:white;fill-rule:nonzero;"/>
        </g>
        <g>
            <path d="M24.8,24.8L24,24.8L24,20.4C24,18.6 22,17.7 19.9,17L17.9,16C17.4,15.6 16.7,15.1 16.7,14.7L16.7,13.7L17.4,13.7L17.4,14.7C17.5,14.8 17.9,15.2 18.2,15.4L20.2,16.4C21.7,16.9 24.8,17.9 24.8,20.4L24.8,24.8Z" style="fill:white;fill-rule:nonzero;"/>
        </g>
        <g>
            <rect x="11.3" y="8.7" width="0.3" height="0.7" style="fill:white;"/>
        </g>
        <g>
            <path d="M15,15C12.5,15 11.4,12.3 11.3,10.4L11.1,10.2C11,10.2 11,10.1 11,10L11,8.7L11.7,8.7L11.7,9.9L11.9,10.1C12,10.2 12,10.2 12,10.3C12,11.9 13,14.3 15,14.3C17,14.3 18,11.9 18,10.3C18,10.2 18,10.1 18.1,10.1L18.3,9.9L18.3,8.7L19,8.7L19,10C19,10.1 19,10.2 18.9,10.2L18.7,10.4C18.6,12.4 17.5,15 15,15Z" style="fill:white;fill-rule:nonzero;"/>
        </g>
        <g>
            <path d="M18.7,8L11.3,8C11.2,8 11.1,8 11.1,7.9L10.8,7.6C10.7,7.5 10.7,7.4 10.7,7.3L11,4.9C11.2,3.9 11.9,3.3 12.7,3.3L17.4,3.3C18.2,3.3 18.9,3.9 19.1,4.9L19.4,7.3C19.4,7.4 19.4,7.5 19.3,7.6L19,7.9C18.9,8 18.8,8 18.7,8ZM11.4,7.3L18.5,7.3L18.6,7.2L18.4,5C18.3,4.5 18,4 17.4,4L12.7,4C12,4 11.8,4.7 11.7,5.1L11.4,7.3Z" style="fill:white;fill-rule:nonzero;"/>
        </g>
        <g>
            <rect x="14.7" y="4.6" width="0.7" height="2" style="fill:white;"/>
        </g>
        <g>
            <rect x="14" y="5.3" width="2" height="0.7" style="fill:white;"/>
        </g>
        <g>
            <path d="M17.9,11.7L15,10.7L12.1,11.7L11.9,11L14.9,10L15.1,10L18.1,11L17.9,11.7Z" style="fill:white;fill-rule:nonzero;"/>
        </g>
        <g>
            <rect x="16.7" y="21.1" width="2.7" height="0.7" style="fill:white;"/>
        </g>
        <g>
            <path d="M15,17.4C13.1,17.4 11.6,16.7 11.6,15.7L12.3,15.7C12.3,16.1 13.3,16.7 15,16.7C16.7,16.7 17.7,16.1 17.7,15.7L18.4,15.7C18.4,16.7 16.9,17.4 15,17.4Z" style="fill:white;fill-rule:nonzero;"/>
        </g>
    </g>
</svg>
