<?xml version="1.0" encoding="utf-8"?>
<!-- Generator: $$$/GeneralStr/196=Adobe Illustrator 27.6.0, SVG Export Plug-In . SVG Version: 6.00 Build 0)  -->
<svg version="1.1" xmlns="http://www.w3.org/2000/svg" xmlns:xlink="http://www.w3.org/1999/xlink" x="0px" y="0px"
	 viewBox="0 0 30 30" style="enable-background:new 0 0 30 30;" xml:space="preserve">
<style type="text/css">
	.st0{fill:#9BBE3D;}
	.st1{fill:#FFFFFF;}
	.st2{display:none;}
	.st3{display:inline;}
</style>
<g id="Ebene_1">
	<circle class="st0" cx="15" cy="15" r="14.8"/>
	<path class="st1" d="M15,30c-2,0-4-0.4-5.8-1.2C7.4,28,5.8,27,4.4,25.6c-1.4-1.4-2.5-3-3.2-4.8C0.4,19,0,17,0,15s0.4-4,1.2-5.8
		C1.9,7.4,3,5.8,4.4,4.4s3-2.5,4.8-3.2C11,0.4,13,0,15,0s4,0.4,5.8,1.2s3.4,1.8,4.8,3.2s2.5,3,3.2,4.8C29.6,11,30,13,30,15
		s-0.4,4-1.2,5.8c-0.8,1.8-1.8,3.4-3.2,4.8c-1.4,1.4-3,2.5-4.8,3.2C19,29.6,17,30,15,30z M15,0.4c-2,0-3.9,0.4-5.7,1.1
		C7.6,2.3,6,3.3,4.7,4.7C3.3,6,2.3,7.6,1.5,9.3C0.8,11.1,0.4,13,0.4,15s0.4,3.9,1.1,5.7c0.7,1.7,1.8,3.3,3.1,4.6
		c1.3,1.3,2.9,2.4,4.6,3.1c1.8,0.8,3.7,1.1,5.7,1.1s3.9-0.4,5.7-1.1c1.7-0.7,3.3-1.8,4.6-3.1c1.3-1.3,2.4-2.9,3.1-4.6
		c0.8-1.8,1.1-3.7,1.1-5.7s-0.4-3.9-1.1-5.7c-0.7-1.7-1.8-3.3-3.1-4.6c-1.3-1.3-2.9-2.4-4.6-3.1C18.9,0.8,17,0.4,15,0.4z"/>
</g>
<g id="Gastro" class="st2">
	<g class="st3">
		<path d="M16,13c-0.1,0-0.2,0-0.2-0.1c-0.1-0.1-0.1-0.3,0-0.5l0.5-0.5c-0.2-0.5-0.3-1.4,0.5-2.1L21,5.5c0.1-0.1,0.3-0.1,0.5,0
			c0.1,0.1,0.1,0.3,0,0.5l-4.3,4.3c-0.8,0.8-0.3,1.5-0.3,1.6l0.1,0.2l-0.8,0.8C16.2,13,16.1,13,16,13z"/>
	</g>
	<g class="st3">
		<path d="M7.6,24.1H6.7l-0.8-0.8v-0.9l5.3-5.3c0.1-0.1,0.3-0.1,0.5,0s0.1,0.3,0,0.5l-5.1,5.1V23l0.5,0.5h0.4l6.1-6.1
			c0.1-0.1,0.3-0.1,0.5,0s0.1,0.3,0,0.5L7.6,24.1z"/>
	</g>
	<g class="st3">
		<path d="M17.3,14.3c-0.1,0-0.2,0-0.2-0.1c-0.1-0.1-0.1-0.3,0-0.5l0.8-0.8l0.2,0.1c0.1,0,0.8,0.5,1.6-0.3l4.3-4.3
			c0.1-0.1,0.3-0.1,0.5,0s0.1,0.3,0,0.5l-4.3,4.3c-0.8,0.8-1.6,0.7-2.1,0.5l-0.5,0.5C17.5,14.3,17.4,14.3,17.3,14.3z"/>
	</g>
	<g class="st3">
		<path d="M18,11.3c-0.1,0-0.2,0-0.2-0.1c-0.1-0.1-0.1-0.3,0-0.5L22,6.5c0.1-0.1,0.3-0.1,0.5,0c0.1,0.1,0.1,0.3,0,0.5l-4.3,4.3
			C18.1,11.3,18,11.3,18,11.3z"/>
	</g>
	<g class="st3">
		<path d="M18.9,12.3c-0.1,0-0.2,0-0.2-0.1c-0.1-0.1-0.1-0.3,0-0.5L23,7.5c0.1-0.1,0.3-0.1,0.5,0c0.1,0.1,0.1,0.3,0,0.5l-4.3,4.3
			C19.1,12.3,19,12.3,18.9,12.3z"/>
	</g>
	<g class="st3">
		<path d="M23.3,24.1h-0.9l-7.5-7.5h-2.6l-4.7-4.7c-1.7-1.7-1.7-2.1-1.7-3.2c0-1.8,1.4-2.8,1.4-2.9l0.2-0.2l16.7,16.7v0.9L23.3,24.1
			z M22.7,23.5h0.4l0.5-0.5v-0.4L7.4,6.6c-0.3,0.3-1,1.1-1,2.2c0,0.9,0,1.2,1.5,2.7l4.5,4.5h2.6L22.7,23.5z M23.9,23.1L23.9,23.1
			L23.9,23.1z"/>
	</g>
	<g class="st3">
		<path d="M11.4,15.6c-0.1,0-0.2,0-0.2-0.1c-0.1-0.1-0.1-0.3,0-0.5l0.7-0.7c0.1-0.1,0.3-0.1,0.5,0c0.1,0.1,0.1,0.3,0,0.5l-0.7,0.7
			C11.6,15.6,11.5,15.6,11.4,15.6z"/>
	</g>
	<g class="st3">
		<path d="M10.4,14.6c-0.1,0-0.2,0-0.2-0.1c-0.1-0.1-0.1-0.3,0-0.5l0.7-0.7c0.1-0.1,0.3-0.1,0.5,0s0.1,0.3,0,0.5l-0.7,0.7
			C10.6,14.6,10.5,14.6,10.4,14.6z"/>
	</g>
	<g class="st3">
		<path d="M9.4,13.6c-0.1,0-0.2,0-0.2-0.1c-0.1-0.1-0.1-0.3,0-0.5l0.7-0.7c0.1-0.1,0.3-0.1,0.5,0s0.1,0.3,0,0.5l-0.7,0.7
			C9.6,13.6,9.5,13.6,9.4,13.6z"/>
	</g>
	<g class="st3">
		<path d="M8.4,12.7c-0.1,0-0.2,0-0.2-0.1c-0.1-0.1-0.1-0.3,0-0.5l0.7-0.7c0.1-0.1,0.3-0.1,0.5,0s0.1,0.3,0,0.5l-0.7,0.7
			C8.6,12.6,8.5,12.7,8.4,12.7z"/>
	</g>
	<g class="st3">
		<path d="M7.5,11.7c-0.1,0-0.2,0-0.2-0.1c-0.1-0.1-0.1-0.3,0-0.5l0.7-0.7c0.1-0.1,0.3-0.1,0.5,0s0.1,0.3,0,0.5l-0.7,0.7
			C7.6,11.6,7.5,11.7,7.5,11.7z"/>
	</g>
	<g class="st3">
		<path d="M6.2,20.7C5.1,19,4.5,17,4.5,15c0-1.3,0.2-2.5,0.7-3.7l0.6,0.2c-0.4,1.1-0.6,2.3-0.6,3.5c0,1.9,0.6,3.8,1.6,5.4L6.2,20.7z
			"/>
	</g>
	<g class="st3">
		<path d="M15,25.4c-2.1,0-4-0.6-5.8-1.7l0.4-0.5c1.6,1.1,3.5,1.6,5.4,1.6s3.8-0.6,5.4-1.6l0.4,0.5C19,24.8,17.1,25.4,15,25.4z"/>
	</g>
	<g class="st3">
		<path d="M23.8,20.7l-0.5-0.4c1.1-1.6,1.6-3.5,1.6-5.4c0-1.4-0.3-2.8-0.9-4.1l0.6-0.3c0.6,1.4,1,2.8,1,4.4
			C25.5,17,24.9,19,23.8,20.7z"/>
	</g>
	<g class="st3">
		<path d="M9.6,6.7L9.2,6.2C11,5.1,12.9,4.5,15,4.5c1.6,0,3.1,0.4,4.6,1l-0.3,0.6c-1.3-0.6-2.8-1-4.3-1C13.1,5.1,11.2,5.7,9.6,6.7z"
			/>
	</g>
</g>
<g id="Schule">
</g>
<g id="Ärzte" class="st2">
	<g class="st3">
		<rect x="8.6" y="22.8" width="0.7" height="2"/>
	</g>
	<g class="st3">
		<rect x="20.7" y="22.8" width="0.7" height="2"/>
	</g>
	<g class="st3">
		<path d="M5.9,24.8H5.3v-4.4c0-2.5,3.1-3.5,4.6-4l2-1c0.4-0.3,0.8-0.6,0.8-0.7v-1h0.7v1c0,0.4-0.6,0.9-1.2,1.3c0,0,0,0,0,0l-2,1
			c0,0,0,0,0,0c-2.1,0.7-4.1,1.6-4.1,3.4V24.8z M12.7,14.7L12.7,14.7L12.7,14.7z"/>
	</g>
	<g class="st3">
		<path d="M24.7,24.8h-0.7v-4.4c0-1.8-2-2.7-4.1-3.4c0,0,0,0,0,0l-2-1c0,0,0,0,0,0c-0.5-0.4-1.2-0.9-1.2-1.3v-1h0.7v1
			c0.1,0.1,0.5,0.5,0.8,0.7l2,1c1.5,0.5,4.6,1.5,4.6,4V24.8z M17.3,14.7L17.3,14.7z"/>
	</g>
	<g class="st3">
		<rect x="11.3" y="8.7" width="0.3" height="0.7"/>
	</g>
	<g class="st3">
		<path d="M15,15c-2.5,0-3.6-2.7-3.7-4.6l-0.2-0.2C11,10.2,11,10.1,11,10V8.7h0.7v1.2l0.2,0.2c0.1,0.1,0.1,0.1,0.1,0.2
			c0,1.6,1,4,3,4s3-2.4,3-4c0-0.1,0-0.2,0.1-0.2l0.2-0.2V8.7H19V10c0,0.1,0,0.2-0.1,0.2l-0.2,0.2C18.6,12.4,17.5,15,15,15z"/>
	</g>
	<g class="st3">
		<path d="M18.7,8h-7.4c-0.1,0-0.2,0-0.2-0.1l-0.3-0.3c-0.1-0.1-0.1-0.2-0.1-0.3L11,4.9c0.2-1,0.9-1.6,1.7-1.6h4.7
			c0.8,0,1.5,0.6,1.7,1.6l0.3,2.4c0,0.1,0,0.2-0.1,0.3l-0.3,0.3C18.9,8,18.8,8,18.7,8z M11.4,7.3h7.1l0.1-0.1L18.4,5
			C18.3,4.5,18,4,17.4,4h-4.7c-0.7,0-0.9,0.7-1,1.1l-0.3,2.2L11.4,7.3z"/>
	</g>
	<g class="st3">
		<rect x="14.7" y="4.6" width="0.7" height="2"/>
	</g>
	<g class="st3">
		<rect x="14" y="5.3" width="2" height="0.7"/>
	</g>
	<g class="st3">
		<path d="M17.9,11.7l-2.9-1l-2.9,1L11.9,11l3-1c0.1,0,0.1,0,0.2,0l3,1L17.9,11.7z"/>
	</g>
	<g class="st3">
		<rect x="16.7" y="21.1" width="2.7" height="0.7"/>
	</g>
	<g class="st3">
		<path d="M15,17.4c-1.9,0-3.4-0.7-3.4-1.7h0.7c0,0.4,1,1,2.7,1s2.7-0.6,2.7-1h0.7C18.4,16.7,16.9,17.4,15,17.4z"/>
	</g>
</g>
<g id="Betreuung" class="st2">
	<g class="st3">
		<rect x="11.1" y="10.1" width="7.7" height="0.8"/>
	</g>
	<g class="st3">
		<path d="M21.2,19.8c-0.1,0-0.2,0-0.3-0.1c-0.2-0.2-0.2-0.4,0-0.5l1.4-1.4v-0.8l1.3-1.3c0.2-0.2,0.4-0.2,0.5,0s0.2,0.4,0,0.5l-1,1
			V18l-1.7,1.7C21.4,19.7,21.3,19.8,21.2,19.8z"/>
	</g>
	<g class="st3">
		<path d="M19.6,24.4c-0.5,0-1-0.4-1-0.5l-4.3-4.3c-0.2-0.2-0.2-0.4,0-0.5s0.4-0.2,0.5,0l4.3,4.3c0.1,0.1,0.3,0.3,0.5,0.3
			c0.4,0,0.8-0.3,0.8-0.8c0-0.2-0.2-0.4-0.3-0.5l-4.3-4.3c-0.2-0.2-0.2-0.4,0-0.5c0.2-0.2,0.4-0.2,0.5,0l4.3,4.3
			c0.1,0.1,0.5,0.5,0.5,1C21.2,23.7,20.5,24.4,19.6,24.4z"/>
	</g>
	<g class="st3">
		<path d="M17.7,25.6c-0.5,0-1-0.4-1-0.5l-3.9-3.9c-0.2-0.2-0.2-0.4,0-0.5c0.2-0.2,0.4-0.2,0.5,0l3.9,3.9c0.1,0.1,0.3,0.3,0.5,0.3
			c0.4,0,0.8-0.3,0.8-0.8c0-0.2-0.2-0.4-0.3-0.5c-0.1-0.2-0.1-0.4,0-0.5c0.2-0.2,0.4-0.1,0.5,0c0.1,0.1,0.5,0.5,0.5,1
			C19.2,24.9,18.5,25.6,17.7,25.6z"/>
	</g>
	<g class="st3">
		<path d="M15.4,26.3c-0.5,0-1-0.4-1-0.5l-7.1-7.1v-1.2l-1.4-1.4c-0.2-0.2-0.2-0.4,0-0.5c0.2-0.2,0.4-0.2,0.5,0L8,17.3v1.2l6.9,6.9
			c0.1,0.1,0.3,0.3,0.5,0.3c0.4,0,0.8-0.3,0.8-0.8c0-0.2-0.2-0.4-0.3-0.5c-0.1-0.2-0.1-0.4,0-0.5c0.2-0.2,0.4-0.1,0.5,0
			c0.1,0.1,0.5,0.5,0.5,1C16.9,25.6,16.2,26.3,15.4,26.3z"/>
	</g>
	<g class="st3">
		<path d="M8.8,21.7c-0.9,0-1.5-0.7-1.5-1.5c0-0.5,0.4-1,0.5-1c0.2-0.2,0.4-0.2,0.5,0s0.2,0.4,0,0.5C8.2,19.8,8,20,8,20.1
			c0,0.4,0.3,0.8,0.8,0.8c0.2,0,0.4-0.2,0.5-0.3c0.2-0.1,0.4-0.1,0.5,0c0.2,0.2,0.2,0.4,0,0.5C9.8,21.2,9.3,21.7,8.8,21.7z"/>
	</g>
	<g class="st3">
		<path d="M10.3,23.2c-0.9,0-1.5-0.7-1.5-1.5c0-0.5,0.4-1,0.5-1c0.2-0.2,0.4-0.2,0.5,0c0.2,0.2,0.2,0.4,0,0.5
			c-0.1,0.1-0.3,0.3-0.3,0.5c0,0.4,0.3,0.8,0.8,0.8c0.2,0,0.4-0.2,0.5-0.3c0.2-0.1,0.4-0.1,0.5,0c0.2,0.2,0.2,0.4,0,0.5
			C11.3,22.8,10.9,23.2,10.3,23.2z"/>
	</g>
	<g class="st3">
		<path d="M11.9,24.8c-0.9,0-1.5-0.7-1.5-1.5c0-0.5,0.4-1,0.5-1c0.2-0.2,0.4-0.2,0.5,0c0.2,0.2,0.2,0.4,0,0.5
			c-0.1,0.1-0.3,0.3-0.3,0.5c0,0.4,0.3,0.8,0.8,0.8c0.2,0,0.4-0.2,0.5-0.3c0.2-0.1,0.4-0.1,0.5,0c0.2,0.2,0.2,0.4,0,0.5
			C12.9,24.3,12.4,24.8,11.9,24.8z"/>
	</g>
	<g class="st3">
		<path d="M13.4,26.3c-0.9,0-1.5-0.7-1.5-1.5c0-0.5,0.4-1,0.5-1c0.2-0.2,0.4-0.2,0.5,0s0.2,0.4,0,0.5c-0.1,0.1-0.3,0.3-0.3,0.5
			c0,0.4,0.3,0.8,0.8,0.8c0.2,0,0.4-0.2,0.5-0.3c0.2-0.1,0.4-0.1,0.5,0c0.2,0.2,0.2,0.4,0,0.5C14.4,25.9,14,26.3,13.4,26.3z"/>
	</g>
	<g class="st3">
		<path d="M20.4,22.1c-0.5,0-1-0.4-1-0.5c-0.2-0.2-0.2-0.4,0-0.5s0.4-0.2,0.5,0c0.1,0.1,0.3,0.3,0.5,0.3c0.4,0,0.8-0.3,0.8-0.8
			c0-0.2-0.2-0.4-0.3-0.5l-5.1-5.1v-2.1h-0.6l-1.8,1.8c-0.1,0.1-0.5,0.5-1,0.5c-0.9,0-1.5-0.7-1.5-1.5c0-0.5,0.4-1,0.5-1l2.3-2.3
			c0.2-0.2,0.4-0.2,0.5,0s0.2,0.4,0,0.5l-2.3,2.3c-0.1,0.1-0.3,0.3-0.3,0.5c0,0.4,0.3,0.8,0.8,0.8c0.2,0,0.4-0.2,0.5-0.3l2-2h1.7
			v2.5l4.9,4.9c0.1,0.1,0.5,0.5,0.5,1C21.9,21.4,21.2,22.1,20.4,22.1z"/>
	</g>
	<g class="st3">
		<path d="M18.1,15.9h-1.2v-0.8h1.2c0.4,0,0.8-0.3,0.8-0.8h0.8C19.6,15.2,18.9,15.9,18.1,15.9z"/>
	</g>
	<g class="st3">
		<path d="M25,16.3h-0.8c-0.1,0-0.2,0-0.3-0.1L17.8,10c-0.1-0.1-0.1-0.2-0.1-0.3V8.9c0-0.1,0-0.2,0.1-0.3l3.9-3.9
			c0.2-0.2,0.4-0.2,0.5,0c0.2,0.2,0.2,0.4,0,0.5l-3.8,3.8v0.5l6,6h0.5l1.8-1.8c0.2-0.2,0.4-0.2,0.5,0s0.2,0.4,0,0.5l-1.9,1.9
			C25.2,16.2,25.1,16.3,25,16.3z"/>
	</g>
	<g class="st3">
		<path d="M5.7,16.3H4.9c-0.1,0-0.2,0-0.3-0.1l-1.9-1.9c-0.2-0.2-0.2-0.4,0-0.5c0.2-0.2,0.4-0.2,0.5,0l1.8,1.8h0.5l6-6V9.1L7.7,5.3
			c-0.2-0.2-0.2-0.4,0-0.5c0.2-0.2,0.4-0.2,0.5,0l3.9,3.9c0.1,0.1,0.1,0.2,0.1,0.3v0.8c0,0.1,0,0.2-0.1,0.3L6,16.2
			C5.9,16.2,5.8,16.3,5.7,16.3z"/>
	</g>
	<g class="st3">
		<path d="M24.7,13.6c-0.1,0-0.2,0-0.3-0.1c-0.2-0.2-0.2-0.4,0-0.5l0.8-0.8c0.2-0.2,0.4-0.2,0.5,0s0.2,0.4,0,0.5l-0.8,0.8
			C24.8,13.5,24.7,13.6,24.7,13.6z"/>
	</g>
	<g class="st3">
		<path d="M5.3,13.6c-0.1,0-0.2,0-0.3-0.1l-0.8-0.8c-0.2-0.2-0.2-0.4,0-0.5s0.4-0.2,0.5,0l0.8,0.8c0.2,0.2,0.2,0.4,0,0.5
			C5.5,13.5,5.4,13.6,5.3,13.6z"/>
	</g>
</g>
<g id="Übernachtung" class="st2">
	<g class="st3">
		<path d="M25.1,22.8h-2v-2H6.9v2h-2v-7.4c0-1.5,1.2-2.7,2.7-2.7h14.8c1.5,0,2.7,1.2,2.7,2.7V22.8z M23.8,22.1h0.7v-6.7
			c0-1.1-0.9-2-2-2H7.6c-1.1,0-2,0.9-2,2v6.7h0.7v-2h17.5V22.1z"/>
	</g>
	<g class="st3">
		<path d="M23.4,13h-0.7V8c0-1.1-0.9-2-2-2H9.3c-1.1,0-2,0.9-2,2V13H6.6V8c0-1.5,1.2-2.7,2.7-2.7h11.4c1.5,0,2.7,1.2,2.7,2.7V13z"/>
	</g>
	<g class="st3">
		<path d="M14.7,12H14v-1.3c0-0.7-0.6-1.3-1.3-1.3H9.9c-0.7,0-1.3,0.6-1.3,1.3V12H7.9v-1.3c0-1.1,0.9-2,2-2h2.7c1.1,0,2,0.9,2,2V12z
			"/>
	</g>
	<g class="st3">
		<path d="M22.1,12h-0.7v-1.3c0-0.7-0.6-1.3-1.3-1.3h-2.7c-0.7,0-1.3,0.6-1.3,1.3V12h-0.7v-1.3c0-1.1,0.9-2,2-2h2.7c1.1,0,2,0.9,2,2
			V12z"/>
	</g>
	<g class="st3">
		<rect x="6.2" y="18.7" width="17.5" height="0.7"/>
	</g>
	<g class="st3">
		<rect x="14.7" y="6.6" width="0.7" height="0.7"/>
	</g>
	<g class="st3">
		<rect x="13.3" y="6.6" width="0.7" height="0.7"/>
	</g>
	<g class="st3">
		<rect x="16" y="6.6" width="0.7" height="0.7"/>
	</g>
	<g class="st3">
		<rect x="4.2" y="22.1" width="21.5" height="0.7"/>
	</g>
</g>
<g id="Grundversorgung">
	<g>
		<path d="M15.1,13.3l-0.6-0.2l0.9-2.4V8.6H16v2.1c0,0,0,0.1,0,0.1L15.1,13.3z"/>
	</g>
	<g>
		<rect x="16.4" y="24.2" width="4.9" height="0.6"/>
	</g>
	<g>
		<path d="M20.6,17.5H20v-2.7l-1.5-3.9c0,0,0-0.1,0-0.1V8.6h0.6v2.1l1.5,3.9c0,0,0,0.1,0,0.1V17.5z"/>
	</g>
	<g>
		<rect x="14.8" y="15.6" width="5.5" height="0.6"/>
	</g>
	<g>
		<rect x="15.4" y="20.5" width="2.4" height="0.6"/>
	</g>
	<g>
		<path d="M18.8,8.9h-3.1c-0.5,0-0.9-0.4-0.9-0.9S15.2,7,15.7,7h3.1c0.5,0,0.9,0.4,0.9,0.9S19.3,8.9,18.8,8.9z M15.7,7.7
			c-0.2,0-0.3,0.1-0.3,0.3c0,0.2,0.1,0.3,0.3,0.3h3.1c0.2,0,0.3-0.1,0.3-0.3c0-0.2-0.1-0.3-0.3-0.3H15.7z"/>
	</g>
	<g>
		<path d="M15.4,24.8h-3.7c-0.2,0-0.3-0.1-0.3-0.3v-6.7c0-0.2,0.1-0.3,0.3-0.3h3.7c0.2,0,0.3,0.1,0.3,0.3v6.7
			C15.7,24.7,15.6,24.8,15.4,24.8z M12.1,24.2h3.1v-6.1h-3.1V24.2z"/>
	</g>
	<g>
		<path d="M11.8,24.8H6.2c-0.2,0-0.3-0.1-0.3-0.3v-6.7c0-0.2,0.1-0.3,0.3-0.3h5.5v0.6H6.6v6.1h5.2V24.8z"/>
	</g>
	<g>
		<path d="M15.2,17.9l-1.6-3.6L12,17.9l-0.6-0.2l1.8-4.3c0-0.1,0.2-0.2,0.3-0.2s0.2,0.1,0.3,0.2l1.8,4.3L15.2,17.9z"/>
	</g>
	<g>
		<path d="M6.5,17.9L6,17.6l1.8-4.3c0-0.1,0.2-0.2,0.3-0.2h5.5v0.6H8.3L6.5,17.9z"/>
	</g>
	<g>
		<path d="M13.9,13.5h-0.6v-0.9H8.4v0.9H7.8v-1.2c0-0.2,0.1-0.3,0.3-0.3h5.5c0.2,0,0.3,0.1,0.3,0.3V13.5z"/>
	</g>
	<g>
		<path d="M21.6,24.8c-2.2,0-4-1.8-4-4s1.8-4,4-4s4,1.8,4,4S23.8,24.8,21.6,24.8z M21.6,17.5c-1.9,0-3.4,1.5-3.4,3.4
			s1.5,3.4,3.4,3.4s3.4-1.5,3.4-3.4S23.4,17.5,21.6,17.5z"/>
	</g>
	<g>
		<rect x="21.3" y="18.1" width="0.6" height="0.6"/>
	</g>
	<g>
		<path d="M21.6,23.6V23c1.2,0,2.1-1,2.1-2.1h0.6C24.3,22.3,23.1,23.6,21.6,23.6z"/>
	</g>
	<g>
		<rect x="7.8" y="23" width="2.4" height="0.6"/>
	</g>
	<g>
		<path d="M21.9,16.2h-0.6V5.8H8.4v5.5H7.8V5.5c0-0.2,0.1-0.3,0.3-0.3h13.5c0.2,0,0.3,0.1,0.3,0.3V16.2z"/>
	</g>
	<g>
		<rect x="9" y="6.4" width="4.9" height="0.6"/>
	</g>
	<g>
		<rect x="9" y="7.7" width="2.4" height="0.6"/>
	</g>
	<g>
		<path d="M23.7,16.2h-0.6V7.5l-1.7-1.7l0.4-0.4l1.8,1.8c0.1,0.1,0.1,0.1,0.1,0.2V16.2z"/>
	</g>
	<g>
		<path d="M9.9,16.8c-0.7,0-1.2-0.5-1.2-1.2s0.5-1.2,1.2-1.2s1.2,0.5,1.2,1.2S10.6,16.8,9.9,16.8z M9.9,15c-0.3,0-0.6,0.3-0.6,0.6
			s0.3,0.6,0.6,0.6s0.6-0.3,0.6-0.6S10.3,15,9.9,15z"/>
	</g>
	<g>
		<rect x="13.3" y="18.7" width="0.6" height="0.6"/>
	</g>
	<g>
		<rect x="13.3" y="19.9" width="0.6" height="0.6"/>
	</g>
	<g>
		<rect x="13.3" y="21.1" width="0.6" height="0.6"/>
	</g>
</g>
<g id="POI" class="st2">
	<g class="st3">
		<path d="M15,22.7l-0.3-0.3c-0.3-0.3-7-7.1-7-12.2c0-4,3.3-7.3,7.3-7.3s7.3,3.3,7.3,7.3c0,5.2-6.7,11.9-7,12.2L15,22.7z M15,3.6
			c-3.6,0-6.5,2.9-6.5,6.5c0,4.3,5.3,10.1,6.5,11.5c1.2-1.3,6.5-7.1,6.5-11.5C21.5,6.6,18.6,3.6,15,3.6z"/>
	</g>
	<g class="st3">
		<path d="M15,26.1c-5.4,0-9.4-1.6-9.4-3.6c0-1.4,1.9-2.6,5-3.2l0.1,0.7c-2.6,0.5-4.4,1.5-4.4,2.5c0,1.4,3.6,2.9,8.7,2.9
			s8.7-1.5,8.7-2.9c0-1-1.9-2.1-4.8-2.6l0.1-0.7c3.4,0.6,5.4,1.8,5.4,3.3C24.4,24.6,20.4,26.1,15,26.1z"/>
	</g>
	<g class="st3">
		<path d="M15,24c-1.6,0-3.3-0.5-3.3-1.5c0-0.2,0.1-0.7,0.9-1.1l0.3,0.7c-0.4,0.2-0.5,0.3-0.5,0.4c0,0.2,0.9,0.7,2.5,0.7
			s2.5-0.5,2.5-0.7c0-0.1-0.1-0.2-0.5-0.4l0.3-0.7c0.8,0.3,0.9,0.8,0.9,1.1C18.3,23.5,16.6,24,15,24z"/>
	</g>
	<g class="st3">
		<path d="M15,15.2c-2.8,0-5.1-2.3-5.1-5.1s2.3-5.1,5.1-5.1s5.1,2.3,5.1,5.1S17.8,15.2,15,15.2z M15,5.8c-2.4,0-4.4,2-4.4,4.4
			s2,4.4,4.4,4.4s4.4-2,4.4-4.4S17.4,5.8,15,5.8z"/>
	</g>
	<g class="st3">
		<path d="M15,12c-1,0-1.8-0.8-1.8-1.8S14,8.4,15,8.4s1.8,0.8,1.8,1.8S16,12,15,12z M15,9.1c-0.6,0-1.1,0.5-1.1,1.1s0.5,1.1,1.1,1.1
			s1.1-0.5,1.1-1.1S15.6,9.1,15,9.1z"/>
	</g>
</g>
<g id="Ebene_2" class="st2">
</g>
<g id="Schule_00000146462812165295917590000006846694761783983006_" class="st2">
	<g class="st3">
		<rect x="8.3" y="18.6" width="0.6" height="7.3"/>
	</g>
	<g class="st3">
		<path d="M8.6,9.5c-1,0-1.9-0.9-1.9-1.9s0.9-1.9,1.9-1.9s1.9,0.9,1.9,1.9S9.6,9.5,8.6,9.5z M8.6,6.3c-0.7,0-1.3,0.6-1.3,1.3
			s0.6,1.3,1.3,1.3s1.3-0.6,1.3-1.3S9.3,6.3,8.6,6.3z"/>
	</g>
	<g class="st3">
		<path d="M11.1,25.9h-0.6v-8.2c0-0.2,0.1-0.3,0.3-0.3h0.9v-4.7c0-1-0.9-1.9-1.9-1.9H7.3c-1,0-1.9,0.9-1.9,1.9v4.7h0.9
			c0.2,0,0.3,0.1,0.3,0.3v8.2H6V18H5.1c-0.2,0-0.3-0.1-0.3-0.3v-5.1c0-1.4,1.1-2.5,2.5-2.5h2.5c1.4,0,2.5,1.1,2.5,2.5v5.1
			c0,0.2-0.1,0.3-0.3,0.3h-0.9V25.9z"/>
	</g>
	<g class="st3">
		<rect x="8.3" y="11.3" width="0.6" height="0.6"/>
	</g>
	<g class="st3">
		<rect x="8.3" y="12.6" width="0.6" height="0.6"/>
	</g>
	<g class="st3">
		<path d="M25,18.9h-0.6V7.9H11.1V7.2h13.6c0.2,0,0.3,0.1,0.3,0.3V18.9z"/>
	</g>
	<g class="st3">
		<path d="M19.5,15.1h-0.9v-0.6h0.9v-1.9h-0.9V12h0.9c0.3,0,0.6,0.3,0.6,0.6v1.9C20.1,14.9,19.8,15.1,19.5,15.1z"/>
	</g>
	<g class="st3">
		<rect x="18.5" y="13.2" width="1.3" height="0.6"/>
	</g>
	<g class="st3">
		<path d="M22.6,15.1h-0.9c-0.3,0-0.6-0.3-0.6-0.6v-1.9c0-0.3,0.3-0.6,0.6-0.6h0.9v0.6h-0.9v1.9h0.9V15.1z"/>
	</g>
	<g class="st3">
		<path d="M15.8,15.1h-0.6v-2.5c0-0.3,0.3-0.6,0.6-0.6h0.9v0.6h-0.9V15.1z"/>
	</g>
	<g class="st3">
		<rect x="16.5" y="12" width="0.6" height="3.2"/>
	</g>
	<g class="st3">
		<rect x="18.2" y="12" width="0.6" height="3.2"/>
	</g>
	<g class="st3">
		<rect x="15.4" y="13.5" width="1.3" height="0.6"/>
	</g>
	<g class="st3">
		<path d="M24.7,20.5h-13v-0.6h12.6v-0.6H11.7v-0.6h13c0.2,0,0.3,0.1,0.3,0.3v1.3C25,20.4,24.9,20.5,24.7,20.5z"/>
	</g>
</g>
<g id="Kindergarten" class="st2">
	<g class="st3">
		<rect x="19.5" y="18" width="0.5" height="6.3"/>
	</g>
	<g class="st3">
		<path d="M22,24.3h-0.5v-7.4h1.1v-4.1c0-0.9-0.7-1.6-1.6-1.6h-2.2c-0.9,0-1.4,0.7-1.4,0.7l-2.1,3.2l-0.5-0.3l2.1-3.2
			c0,0,0.6-0.9,1.9-0.9h2.2c1.2,0,2.2,1,2.2,2.2v4.6H22V24.3z"/>
	</g>
	<g class="st3">
		<rect x="19.5" y="11.7" width="0.5" height="0.5"/>
	</g>
	<g class="st3">
		<rect x="19.5" y="12.8" width="0.5" height="0.5"/>
	</g>
	<g class="st3">
		<rect x="9.7" y="18" width="0.5" height="6.3"/>
	</g>
	<g class="st3">
		<path d="M10.2,10.3c-1.3,0-2.3-1-2.3-2.3s1-2.3,2.3-2.3s2.3,1,2.3,2.3S11.5,10.3,10.2,10.3z M10.2,6.2C9.2,6.2,8.4,7,8.4,8
			s0.8,1.8,1.8,1.8S12,8.9,12,8S11.2,6.2,10.2,6.2z"/>
	</g>
	<g class="st3">
		<path d="M19.8,10.3c-1.3,0-2.3-1-2.3-2.3s1-2.3,2.3-2.3s2.3,1,2.3,2.3S21.1,10.3,19.8,10.3z M19.8,6.2C18.8,6.2,18,7,18,8
			s0.8,1.8,1.8,1.8c1,0,1.8-0.8,1.8-1.8S20.8,6.2,19.8,6.2z"/>
	</g>
	<g class="st3">
		<path d="M8.4,24.3H7.8v-6.8H6.7v-4.6c0-1.2,1-2.2,2.1-2.2h2.2c1.3,0,1.9,0.9,1.9,0.9l3,4.4l-0.4,0.3l-3-4.4c0,0-0.5-0.7-1.4-0.7
			H8.9c-0.9,0-1.6,0.7-1.6,1.6v4.1h1.1V24.3z"/>
	</g>
	<g class="st3">
		<path d="M18.2,24.3h-0.5v-9.7l-2.5,2.5c-0.1,0.1-0.3,0.1-0.4,0l-2.5-2.5v9.7h-0.5V13.9c0-0.1,0.1-0.2,0.2-0.3c0.1,0,0.2,0,0.3,0.1
			l2.8,2.8l2.8-2.8c0.1-0.1,0.2-0.1,0.3-0.1c0.1,0,0.2,0.1,0.2,0.3V24.3z"/>
	</g>
</g>
</svg>
