<?xml version="1.0" encoding="UTF-8" standalone="no"?>
<!DOCTYPE svg PUBLIC "-//W3C//DTD SVG 1.1//EN" "https://www.w3.org/Graphics/SVG/1.1/DTD/svg11.dtd">
<svg width="100%" height="100%" viewBox="0 0 30 30" version="1.1" xmlns="https://www.w3.org/2000/svg" xmlns:xlink="https://www.w3.org/1999/xlink" xml:space="preserve" xmlns:serif="https://www.serif.com/" style="fill-rule:evenodd;clip-rule:evenodd;stroke-linejoin:round;stroke-miterlimit:2;">
    <g id="Ebene_1">
        <circle cx="15" cy="15" r="14.8" style="fill:rgb(65,71,152);"/>
        <path d="M15,30C13,30 11,29.6 9.2,28.8C7.4,28 5.8,27 4.4,25.6C3,24.2 1.9,22.6 1.2,20.8C0.4,19 0,17 0,15C0,13 0.4,11 1.2,9.2C1.9,7.4 3,5.8 4.4,4.4C5.8,3 7.4,1.9 9.2,1.2C11,0.4 13,0 15,0C17,0 19,0.4 20.8,1.2C22.6,2 24.2,3 25.6,4.4C27,5.8 28.1,7.4 28.8,9.2C29.6,11 30,13 30,15C30,17 29.6,19 28.8,20.8C28,22.6 27,24.2 25.6,25.6C24.2,27 22.6,28.1 20.8,28.8C19,29.6 17,30 15,30ZM15,0.4C13,0.4 11.1,0.8 9.3,1.5C7.6,2.3 6,3.3 4.7,4.7C3.3,6 2.3,7.6 1.5,9.3C0.8,11.1 0.4,13 0.4,15C0.4,17 0.8,18.9 1.5,20.7C2.2,22.4 3.3,24 4.6,25.3C5.9,26.6 7.5,27.7 9.2,28.4C11,29.2 12.9,29.5 14.9,29.5C16.9,29.5 18.8,29.1 20.6,28.4C22.3,27.7 23.9,26.6 25.2,25.3C26.5,24 27.6,22.4 28.3,20.7C29.1,18.9 29.4,17 29.4,15C29.4,13 29,11.1 28.3,9.3C27.6,7.6 26.5,6 25.2,4.7C23.9,3.4 22.3,2.3 20.6,1.6C18.9,0.8 17,0.4 15,0.4Z" style="fill:white;fill-rule:nonzero;"/>
    </g>
    <g id="Grundversorgung">
        <g>
            <path d="M15.1,13.3L14.5,13.1L15.4,10.7L15.4,8.6L16,8.6L16,10.8L15.1,13.3Z" style="fill:white;fill-rule:nonzero;"/>
        </g>
        <g>
            <rect x="16.4" y="24.2" width="4.9" height="0.6" style="fill:white;"/>
        </g>
        <g>
            <path d="M20.6,17.5L20,17.5L20,14.8L18.5,10.9L18.5,8.6L19.1,8.6L19.1,10.7L20.6,14.6L20.6,17.5Z" style="fill:white;fill-rule:nonzero;"/>
        </g>
        <g>
            <rect x="14.8" y="15.6" width="5.5" height="0.6" style="fill:white;"/>
        </g>
        <g>
            <rect x="15.4" y="20.5" width="2.4" height="0.6" style="fill:white;"/>
        </g>
        <g>
            <path d="M18.8,8.9L15.7,8.9C15.2,8.9 14.8,8.5 14.8,8C14.8,7.5 15.2,7 15.7,7L18.8,7C19.3,7 19.7,7.4 19.7,7.9C19.7,8.4 19.3,8.9 18.8,8.9ZM15.7,7.7C15.5,7.7 15.4,7.8 15.4,8C15.4,8.2 15.5,8.3 15.7,8.3L18.8,8.3C19,8.3 19.1,8.2 19.1,8C19.1,7.8 19,7.7 18.8,7.7L15.7,7.7Z" style="fill:white;fill-rule:nonzero;"/>
        </g>
        <g>
            <path d="M15.4,24.8L11.7,24.8C11.5,24.8 11.4,24.7 11.4,24.5L11.4,17.8C11.4,17.6 11.5,17.5 11.7,17.5L15.4,17.5C15.6,17.5 15.7,17.6 15.7,17.8L15.7,24.5C15.7,24.7 15.6,24.8 15.4,24.8ZM12.1,24.2L15.2,24.2L15.2,18.1L12.1,18.1L12.1,24.2Z" style="fill:white;fill-rule:nonzero;"/>
        </g>
        <g>
            <path d="M11.8,24.8L6.2,24.8C6,24.8 5.9,24.7 5.9,24.5L5.9,17.8C5.9,17.6 6,17.5 6.2,17.5L11.7,17.5L11.7,18.1L6.6,18.1L6.6,24.2L11.8,24.2L11.8,24.8Z" style="fill:white;fill-rule:nonzero;"/>
        </g>
        <g>
            <path d="M15.2,17.9L13.6,14.3L12,17.9L11.4,17.7L13.2,13.4C13.2,13.3 13.4,13.2 13.5,13.2C13.6,13.2 13.7,13.3 13.8,13.4L15.6,17.7L15.2,17.9Z" style="fill:white;fill-rule:nonzero;"/>
        </g>
        <g>
            <path d="M6.5,17.9L6,17.6L7.8,13.3C7.8,13.2 8,13.1 8.1,13.1L13.6,13.1L13.6,13.7L8.3,13.7L6.5,17.9Z" style="fill:white;fill-rule:nonzero;"/>
        </g>
        <g>
            <path d="M13.9,13.5L13.3,13.5L13.3,12.6L8.4,12.6L8.4,13.5L7.8,13.5L7.8,12.3C7.8,12.1 7.9,12 8.1,12L13.6,12C13.8,12 13.9,12.1 13.9,12.3L13.9,13.5Z" style="fill:white;fill-rule:nonzero;"/>
        </g>
        <g>
            <path d="M21.6,24.8C19.4,24.8 17.6,23 17.6,20.8C17.6,18.6 19.4,16.8 21.6,16.8C23.8,16.8 25.6,18.6 25.6,20.8C25.6,23 23.8,24.8 21.6,24.8ZM21.6,17.5C19.7,17.5 18.2,19 18.2,20.9C18.2,22.8 19.7,24.3 21.6,24.3C23.5,24.3 25,22.8 25,20.9C25,19 23.4,17.5 21.6,17.5Z" style="fill:white;fill-rule:nonzero;"/>
        </g>
        <g>
            <rect x="21.3" y="18.1" width="0.6" height="0.6" style="fill:white;"/>
        </g>
        <g>
            <path d="M21.6,23.6L21.6,23C22.8,23 23.7,22 23.7,20.9L24.3,20.9C24.3,22.3 23.1,23.6 21.6,23.6Z" style="fill:white;fill-rule:nonzero;"/>
        </g>
        <g>
            <rect x="7.8" y="23" width="2.4" height="0.6" style="fill:white;"/>
        </g>
        <g>
            <path d="M21.9,16.2L21.3,16.2L21.3,5.8L8.4,5.8L8.4,11.3L7.8,11.3L7.8,5.5C7.8,5.3 7.9,5.2 8.1,5.2L21.6,5.2C21.8,5.2 21.9,5.3 21.9,5.5L21.9,16.2Z" style="fill:white;fill-rule:nonzero;"/>
        </g>
        <g>
            <rect x="9" y="6.4" width="4.9" height="0.6" style="fill:white;"/>
        </g>
        <g>
            <rect x="9" y="7.7" width="2.4" height="0.6" style="fill:white;"/>
        </g>
        <g>
            <path d="M23.7,16.2L23.1,16.2L23.1,7.5L21.4,5.8L21.8,5.4L23.6,7.2C23.7,7.3 23.7,7.3 23.7,7.4L23.7,16.2Z" style="fill:white;fill-rule:nonzero;"/>
        </g>
        <g>
            <path d="M9.9,16.8C9.2,16.8 8.7,16.3 8.7,15.6C8.7,14.9 9.2,14.4 9.9,14.4C10.6,14.4 11.1,14.9 11.1,15.6C11.1,16.3 10.6,16.8 9.9,16.8ZM9.9,15C9.6,15 9.3,15.3 9.3,15.6C9.3,15.9 9.6,16.2 9.9,16.2C10.2,16.2 10.5,15.9 10.5,15.6C10.5,15.3 10.3,15 9.9,15Z" style="fill:white;fill-rule:nonzero;"/>
        </g>
        <g>
            <rect x="13.3" y="18.7" width="0.6" height="0.6" style="fill:white;"/>
        </g>
        <g>
            <rect x="13.3" y="19.9" width="0.6" height="0.6" style="fill:white;"/>
        </g>
        <g>
            <rect x="13.3" y="21.1" width="0.6" height="0.6" style="fill:white;"/>
        </g>
    </g>
</svg>
