<?xml version="1.0" encoding="utf-8"?>
<!-- Generator: Adobe Illustrator 26.5.0, SVG Export Plug-In . SVG Version: 6.00 Build 0)  -->
<svg version="1.1" id="Ebene_1" xmlns="https://www.w3.org/2000/svg" xmlns:xlink="https://www.w3.org/1999/xlink" x="0px" y="0px"
	 viewBox="0 0 30 30" style="enable-background:new 0 0 30 30;" xml:space="preserve">
<style type="text/css">
	.st0{fill:#F4AF16;}
	.st1{fill:#FFFFFF;}
</style>
<circle class="st0" cx="15" cy="15" r="14.8"/>
<path class="st1" d="M15,30c-2,0-4-0.4-5.8-1.2c-1.8-0.8-3.4-1.8-4.8-3.2c-1.4-1.4-2.5-3-3.2-4.8C0.4,19,0,17,0,15s0.4-4,1.2-5.8
	C1.9,7.4,3,5.8,4.4,4.4c1.4-1.4,3-2.5,4.8-3.2C11,0.4,13,0,15,0s4,0.4,5.8,1.2c1.8,0.8,3.4,1.8,4.8,3.2c1.4,1.4,2.5,3,3.2,4.8
	C29.6,11,30,13,30,15s-0.4,4-1.2,5.8c-0.8,1.8-1.8,3.4-3.2,4.8c-1.4,1.4-3,2.5-4.8,3.2C19,29.6,17,30,15,30z M15,0.4
	c-2,0-3.9,0.4-5.7,1.1C7.6,2.3,6,3.3,4.7,4.7C3.3,6,2.3,7.6,1.5,9.3C0.8,11.1,0.4,13,0.4,15s0.4,3.9,1.1,5.7
	c0.7,1.7,1.8,3.3,3.1,4.6c1.3,1.3,2.9,2.4,4.6,3.1c1.8,0.8,3.7,1.1,5.7,1.1s3.9-0.4,5.7-1.1c1.7-0.7,3.3-1.8,4.6-3.1
	c1.3-1.3,2.4-2.9,3.1-4.6c0.8-1.8,1.1-3.7,1.1-5.7s-0.4-3.9-1.1-5.7c-0.7-1.7-1.8-3.3-3.1-4.6c-1.3-1.3-2.9-2.4-4.6-3.1
	C18.9,0.8,17,0.4,15,0.4z"/>
<g>
	<path class="st1" d="M9.1,25.8c-0.4,0-0.9-0.3-1.1-0.7c-0.3-0.6,0-1.3,0.6-1.6c0,0,1.1-0.5,2.5-1.3c0.6-0.3,1.3-0.1,1.6,0.5
		c0.3,0.6,0.1,1.3-0.5,1.6c-1.5,0.8-2.6,1.3-2.7,1.4C9.4,25.8,9.3,25.8,9.1,25.8z M15,22.5c-0.4,0-0.8-0.2-1-0.5
		c-0.4-0.5-0.2-1.3,0.3-1.6c0.9-0.6,1.6-1.1,2.2-1.7c0.5-0.4,1.2-0.4,1.7,0.1c0.4,0.5,0.4,1.2-0.1,1.7c-0.7,0.6-1.5,1.2-2.4,1.9
		C15.5,22.4,15.3,22.5,15,22.5z M19.5,17.6C19.4,17.6,19.4,17.6,19.5,17.6c-0.8-0.1-1.2-0.6-1.2-1.3l0-0.1c0-0.1,0-0.3-0.3-0.6
		c-0.2-0.2-0.4-0.4-0.7-0.6c-0.5-0.4-0.7-1.1-0.3-1.6s1.1-0.7,1.6-0.3c0.4,0.3,0.8,0.6,1.1,1c0.6,0.6,0.9,1.4,0.9,2.2
		c0,0.1,0,0.2,0,0.3C20.6,17.1,20.1,17.6,19.5,17.6z M14.6,13.2c-0.3,0-0.6-0.1-0.8-0.3c-0.5-0.5-0.7-1-0.7-1.6c0-1.1,0.8-2,1.4-2.5
		c0.5-0.5,1.2-0.4,1.7,0c0.5,0.5,0.4,1.2,0,1.7c-0.4,0.4-0.6,0.7-0.6,0.8c0.4,0.5,0.4,1.2,0,1.7C15.2,13.1,14.9,13.2,14.6,13.2z
		 M18.4,8.4c-0.4,0-0.8-0.2-1-0.5c-0.4-0.5-0.2-1.3,0.4-1.6c0.7-0.5,1.6-1,2.5-1.5c0.6-0.3,1.3-0.1,1.6,0.4c0.3,0.6,0.1,1.3-0.4,1.6
		c-0.9,0.5-1.7,1-2.4,1.5C18.9,8.4,18.6,8.4,18.4,8.4z"/>
</g>
</svg>
