<?xml version="1.0" encoding="utf-8"?>
<!-- Generator: Adobe Illustrator 26.5.0, SVG Export Plug-In . SVG Version: 6.00 Build 0)  -->
<svg version="1.1" id="Ebene_1" xmlns="http://www.w3.org/2000/svg" xmlns:xlink="http://www.w3.org/1999/xlink" x="0px" y="0px"
	 viewBox="0 0 30 30" style="enable-background:new 0 0 30 30;" xml:space="preserve">
<style type="text/css">
	.st0{fill:#A9C600;}
	.st1{fill:#FFFFFF;}
</style>
<circle class="st0" cx="15" cy="15" r="14.8"/>
<path class="st1" d="M15,30c-2,0-4-0.4-5.8-1.2c-1.8-0.8-3.4-1.8-4.8-3.2c-1.4-1.4-2.5-3-3.2-4.8C0.4,19,0,17,0,15s0.4-4,1.2-5.8
	C1.9,7.4,3,5.8,4.4,4.4c1.4-1.4,3-2.5,4.8-3.2C11,0.4,13,0,15,0s4,0.4,5.8,1.2c1.8,0.8,3.4,1.8,4.8,3.2c1.4,1.4,2.5,3,3.2,4.8
	C29.6,11,30,13,30,15s-0.4,4-1.2,5.8c-0.8,1.8-1.8,3.4-3.2,4.8c-1.4,1.4-3,2.5-4.8,3.2C19,29.6,17,30,15,30z M15,0.4
	c-2,0-3.9,0.4-5.7,1.1C7.6,2.3,6,3.3,4.7,4.7C3.3,6,2.3,7.6,1.5,9.3C0.8,11.1,0.4,13,0.4,15s0.4,3.9,1.1,5.7
	c0.7,1.7,1.8,3.3,3.1,4.6c1.3,1.3,2.9,2.4,4.6,3.1c1.8,0.8,3.7,1.1,5.7,1.1s3.9-0.4,5.7-1.1c1.7-0.7,3.3-1.8,4.6-3.1
	c1.3-1.3,2.4-2.9,3.1-4.6c0.8-1.8,1.1-3.7,1.1-5.7s-0.4-3.9-1.1-5.7c-0.7-1.7-1.8-3.3-3.1-4.6c-1.3-1.3-2.9-2.4-4.6-3.1
	C18.9,0.8,17,0.4,15,0.4z"/>
<path class="st1" d="M12.3,19.4c-2-0.3-4.7,0.3-4.7,0.3S6.4,10.5,6.2,9c3.3-1.4,8.2,0,8.2,0l0.1,11.1L12.3,19.4z"/>
<path class="st1" d="M17.3,19.4c2-0.3,4.9,0.3,4.9,0.3s1.3-9.2,1.5-10.7c-3.3-1.4-8.4,0-8.4,0l-0.1,11.1L17.3,19.4z"/>
<g>
	<polygon class="st1" points="5.7,22.5 3.9,11.3 4.9,11.1 6.6,21.5 14.2,21.3 14.2,22.3 	"/>
</g>
<g>
	<polygon class="st1" points="24.2,22.5 15.7,22.3 15.8,21.3 23.4,21.5 25,11.1 26,11.3 	"/>
</g>
</svg>
