<?xml version="1.0" encoding="UTF-8" standalone="no"?>
<!DOCTYPE svg PUBLIC "-//W3C//DTD SVG 1.1//EN" "https://www.w3.org/Graphics/SVG/1.1/DTD/svg11.dtd">
<svg width="100%" height="100%" viewBox="0 0 30 30" version="1.1" xmlns="https://www.w3.org/2000/svg" xmlns:xlink="https://www.w3.org/1999/xlink" xml:space="preserve" xmlns:serif="https://www.serif.com/" style="fill-rule:evenodd;clip-rule:evenodd;stroke-linejoin:round;stroke-miterlimit:2;">
    <g id="Ebene_1">
        <circle cx="15" cy="15" r="14.8" style="fill:rgb(65,71,152);"/>
        <path d="M15,30C13,30 11,29.6 9.2,28.8C7.4,28 5.8,27 4.4,25.6C3,24.2 1.9,22.6 1.2,20.8C0.4,19 0,17 0,15C0,13 0.4,11 1.2,9.2C1.9,7.4 3,5.8 4.4,4.4C5.8,3 7.4,1.9 9.2,1.2C11,0.4 13,0 15,0C17,0 19,0.4 20.8,1.2C22.6,2 24.2,3 25.6,4.4C27,5.8 28.1,7.4 28.8,9.2C29.6,11 30,13 30,15C30,17 29.6,19 28.8,20.8C28,22.6 27,24.2 25.6,25.6C24.2,27 22.6,28.1 20.8,28.8C19,29.6 17,30 15,30ZM15,0.4C13,0.4 11.1,0.8 9.3,1.5C7.6,2.3 6,3.3 4.7,4.7C3.3,6 2.3,7.6 1.5,9.3C0.8,11.1 0.4,13 0.4,15C0.4,17 0.8,18.9 1.5,20.7C2.2,22.4 3.3,24 4.6,25.3C5.9,26.6 7.5,27.7 9.2,28.4C11,29.2 12.9,29.5 14.9,29.5C16.9,29.5 18.8,29.1 20.6,28.4C22.3,27.7 23.9,26.6 25.2,25.3C26.5,24 27.6,22.4 28.3,20.7C29.1,18.9 29.4,17 29.4,15C29.4,13 29,11.1 28.3,9.3C27.6,7.6 26.5,6 25.2,4.7C23.9,3.4 22.3,2.3 20.6,1.6C18.9,0.8 17,0.4 15,0.4Z" style="fill:white;fill-rule:nonzero;"/>
    </g>
    <g id="Schule_00000146462812165295917590000006846694761783983006_">
        <g>
            <rect x="8.3" y="18.6" width="0.6" height="7.3" style="fill:white;"/>
        </g>
        <g>
            <path d="M8.6,9.5C7.6,9.5 6.7,8.6 6.7,7.6C6.7,6.6 7.6,5.7 8.6,5.7C9.6,5.7 10.5,6.6 10.5,7.6C10.5,8.6 9.6,9.5 8.6,9.5ZM8.6,6.3C7.9,6.3 7.3,6.9 7.3,7.6C7.3,8.3 7.9,8.9 8.6,8.9C9.3,8.9 9.9,8.3 9.9,7.6C9.9,6.9 9.3,6.3 8.6,6.3Z" style="fill:white;fill-rule:nonzero;"/>
        </g>
        <g>
            <path d="M11.1,25.9L10.5,25.9L10.5,17.7C10.5,17.5 10.6,17.4 10.8,17.4L11.7,17.4L11.7,12.7C11.7,11.7 10.8,10.8 9.8,10.8L7.3,10.8C6.3,10.8 5.4,11.7 5.4,12.7L5.4,17.4L6.3,17.4C6.5,17.4 6.6,17.5 6.6,17.7L6.6,25.9L6,25.9L6,18L5.1,18C4.9,18 4.8,17.9 4.8,17.7L4.8,12.6C4.8,11.2 5.9,10.1 7.3,10.1L9.8,10.1C11.2,10.1 12.3,11.2 12.3,12.6L12.3,17.7C12.3,17.9 12.2,18 12,18L11.1,18L11.1,25.9Z" style="fill:white;fill-rule:nonzero;"/>
        </g>
        <g>
            <rect x="8.3" y="11.3" width="0.6" height="0.6" style="fill:white;"/>
        </g>
        <g>
            <rect x="8.3" y="12.6" width="0.6" height="0.6" style="fill:white;"/>
        </g>
        <g>
            <path d="M25,18.9L24.4,18.9L24.4,7.9L11.1,7.9L11.1,7.2L24.7,7.2C24.9,7.2 25,7.3 25,7.5L25,18.9Z" style="fill:white;fill-rule:nonzero;"/>
        </g>
        <g>
            <path d="M19.5,15.1L18.6,15.1L18.6,14.5L19.5,14.5L19.5,12.6L18.6,12.6L18.6,12L19.5,12C19.8,12 20.1,12.3 20.1,12.6L20.1,14.5C20.1,14.9 19.8,15.1 19.5,15.1Z" style="fill:white;fill-rule:nonzero;"/>
        </g>
        <g>
            <rect x="18.5" y="13.2" width="1.3" height="0.6" style="fill:white;"/>
        </g>
        <g>
            <path d="M22.6,15.1L21.7,15.1C21.4,15.1 21.1,14.8 21.1,14.5L21.1,12.6C21.1,12.3 21.4,12 21.7,12L22.6,12L22.6,12.6L21.7,12.6L21.7,14.5L22.6,14.5L22.6,15.1Z" style="fill:white;fill-rule:nonzero;"/>
        </g>
        <g>
            <path d="M15.8,15.1L15.2,15.1L15.2,12.6C15.2,12.3 15.5,12 15.8,12L16.7,12L16.7,12.6L15.8,12.6L15.8,15.1Z" style="fill:white;fill-rule:nonzero;"/>
        </g>
        <g>
            <rect x="16.5" y="12" width="0.6" height="3.2" style="fill:white;"/>
        </g>
        <g>
            <rect x="18.2" y="12" width="0.6" height="3.2" style="fill:white;"/>
        </g>
        <g>
            <rect x="15.4" y="13.5" width="1.3" height="0.6" style="fill:white;"/>
        </g>
        <g>
            <path d="M24.7,20.5L11.7,20.5L11.7,19.9L24.3,19.9L24.3,19.3L11.7,19.3L11.7,18.7L24.7,18.7C24.9,18.7 25,18.8 25,19L25,20.3C25,20.4 24.9,20.5 24.7,20.5Z" style="fill:white;fill-rule:nonzero;"/>
        </g>
    </g>
</svg>
