<?xml version="1.0" encoding="UTF-8" standalone="no"?><!DOCTYPE svg PUBLIC "-//W3C//DTD SVG 1.1//EN" "http://www.w3.org/Graphics/SVG/1.1/DTD/svg11.dtd"><svg width="100%" height="100%" viewBox="0 0 125 125" version="1.1" xmlns="http://www.w3.org/2000/svg" xmlns:xlink="http://www.w3.org/1999/xlink" xml:space="preserve" xmlns:serif="http://www.serif.com/" style="fill-rule:evenodd;clip-rule:evenodd;stroke-linejoin:round;stroke-miterlimit:2;"><g id="Ebene_1"><circle cx="62.5" cy="62.5" r="61.667" style="fill:#414798;"/><path d="M62.5,125c-8.333,0 -16.667,-1.667 -24.167,-5c-7.5,-3.333 -14.166,-7.5 -20,-13.333c-5.833,-5.834 -10.416,-12.5 -13.333,-20c-3.333,-7.5 -5,-15.834 -5,-24.167c0,-8.333 1.667,-16.667 5,-24.167c2.917,-7.5 7.5,-14.166 13.333,-20c5.834,-5.833 12.5,-10.416 20,-13.333c7.5,-3.333 15.834,-5 24.167,-5c8.333,0 16.667,1.667 24.167,5c7.5,3.333 14.166,7.5 20,13.333c5.833,5.834 10.416,12.5 13.333,20c3.333,7.5 5,15.834 5,24.167c0,8.333 -1.667,16.667 -5,24.167c-3.333,7.5 -7.5,14.166 -13.333,20c-5.834,5.833 -12.5,10.416 -20,13.333c-7.5,3.333 -15.834,5 -24.167,5Zm0,-123.333c-8.333,-0 -16.25,1.666 -23.75,4.583c-7.083,3.333 -13.75,7.5 -19.167,13.333c-5.833,5.417 -10,12.084 -13.333,19.167c-2.917,7.5 -4.583,15.417 -4.583,23.75c-0,8.333 1.666,16.25 4.583,23.75c2.917,7.083 7.5,13.75 12.917,19.167c5.416,5.416 12.083,10 19.166,12.916c7.5,3.334 15.417,4.584 23.75,4.584c8.334,-0 16.25,-1.667 23.75,-4.584c7.084,-2.916 13.75,-7.5 19.167,-12.916c5.417,-5.417 10,-12.084 12.917,-19.167c3.333,-7.5 4.583,-15.417 4.583,-23.75c0,-8.333 -1.667,-16.25 -4.583,-23.75c-2.917,-7.083 -7.5,-13.75 -12.917,-19.167c-5.417,-5.416 -12.083,-10 -19.167,-12.916c-7.083,-3.334 -15,-5 -23.333,-5Z" style="fill:#fff;fill-rule:nonzero;"/></g><g id="Excavator"></g><g id="Trail-Map" serif:id="Trail Map"><path d="M64.878,90.384l-15.122,9.074l-26.763,-15.293l0,-58.623l26.763,15.293l25.488,-15.293l26.763,15.293l-0,58.623l-16.041,-9.163" style="fill:none;stroke:#fff;stroke-width:4.17px;"/><path d="M49.756,40.835l-0,58.623" style="fill:none;stroke:#fff;stroke-width:4.17px;"/><path d="M75.244,25.542l0,29.312" style="fill:none;stroke:#fff;stroke-width:4.17px;"/><path d="M86.714,70.146c-0,6.334 -11.47,29.312 -11.47,29.312c0,-0 -11.47,-22.978 -11.47,-29.312c0,-6.332 5.135,-11.469 11.47,-11.469c6.335,-0 11.47,5.137 11.47,11.469Z" style="fill:none;stroke:#fff;stroke-width:4.17px;"/><path d="M81.616,70.146c0,3.518 -2.852,6.372 -6.372,6.372c-3.52,0 -6.372,-2.854 -6.372,-6.372c0,-3.517 2.852,-6.372 6.372,-6.372c3.52,0 6.372,2.855 6.372,6.372Z" style="fill:none;stroke:#fff;stroke-width:4.17px;"/><path d="M44.658,90.537l-16.567,-10.195l0,-45.879l16.567,10.195l0,45.879Z" style="fill:none;stroke:#fff;stroke-width:4.17px;"/></g></svg>