<?xml version="1.0" encoding="iso-8859-1"?>
<!-- Generator: Adobe Illustrator 19.0.0, SVG Export Plug-In . SVG Version: 6.00 Build 0)  -->
<svg version="1.1" id="Layer_1" xmlns="https://www.w3.org/2000/svg" xmlns:xlink="https://www.w3.org/1999/xlink" x="0px" y="0px"
	 viewBox="0 0 472.615 472.615" style="enable-background:new 0 0 472.615 472.615;" xml:space="preserve" fill="#124054">
<g>
	<g>
		<path d="M401.409,319.256c-25.029,0-47.001,12.94-59.697,32.469l-202.434-94.502c2.029-6.616,3.134-13.635,3.134-20.913
			c0-6.957-1.045-13.661-2.904-20.014l202.32-95.212c12.716,19.424,34.633,32.28,59.581,32.28c39.327,0,71.206-31.88,71.206-71.207
			c0-39.327-31.88-71.206-71.206-71.206c-39.326,0-71.205,31.88-71.205,71.206c0,7.356,1.118,14.45,3.189,21.125l-202.017,95.068
			c-12.616-19.954-34.816-33.245-60.17-33.245C31.88,165.103,0,196.982,0,236.309c0,39.325,31.88,71.204,71.205,71.204
			c25.029,0,47.001-12.94,59.697-32.469l202.435,94.504c-2.029,6.613-3.134,13.632-3.134,20.913
			c0,39.325,31.88,71.204,71.205,71.204c39.327,0,71.206-31.88,71.206-71.204C472.615,351.136,440.736,319.256,401.409,319.256z"/>
	</g>
</g>
<g>
</g>
<g>
</g>
<g>
</g>
<g>
</g>
<g>
</g>
<g>
</g>
<g>
</g>
<g>
</g>
<g>
</g>
<g>
</g>
<g>
</g>
<g>
</g>
<g>
</g>
<g>
</g>
<g>
</g>
</svg>
